<?xml version="1.0" encoding="UTF-8"?>
<svg id="Layer_1" xmlns="http://www.w3.org/2000/svg" xmlns:xlink="http://www.w3.org/1999/xlink" version="1.1" viewBox="0 0 259.2 141.4">
  <!-- Generator: Adobe Illustrator 29.6.1, SVG Export Plug-In . SVG Version: 2.1.1 Build 9)  -->
  <defs>
    <style>
      .st0 {
        fill: none;
      }

      .st1, .st2, .st3, .st4, .st5, .st6, .st7 {
        isolation: isolate;
      }

      .st1, .st4, .st8, .st9 {
        font-family: Roboto-Bold, Roboto;
        font-weight: 700;
      }

      .st1, .st5, .st6 {
        font-size: 12.8px;
      }

      .st10 {
        fill: #f7b600;
      }

      .st11, .st12, .st13, .st6, .st7 {
        font-family: Roboto-Regular, Roboto;
      }

      .st14 {
        fill: #91c2d8;
      }

      .st15 {
        fill: #036291;
      }

      .st16 {
        fill: #ff8736;
      }

      .st17 {
        letter-spacing: .1em;
      }

      .st18 {
        letter-spacing: .1em;
      }

      .st19 {
        clip-path: url(#clippath-1);
      }

      .st20 {
        fill: #ffdd7d;
      }

      .st3 {
        font-family: Roboto-Italic, Roboto;
        font-style: italic;
      }

      .st3, .st9 {
        font-size: 10px;
      }

      .st21 {
        fill: #42ade2;
      }

      .st22 {
        fill: #c28fef;
      }

      .st4, .st7 {
        font-size: 92px;
      }

      .st12 {
        font-size: 8.9px;
      }

      .st12, .st13 {
        text-decoration: underline;
      }

      .st23 {
        fill: #373535;
      }

      .st24 {
        fill: #493816;
      }

      .st25 {
        fill: #ed4c5c;
      }

      .st13 {
        font-size: 64px;
      }

      .st26 {
        clip-path: url(#clippath);
      }
    </style>
    <clipPath id="clippath">
      <rect class="st0" x="-55" y="-1061.2" width="981.6" height="922.3"/>
    </clipPath>
    <clipPath id="clippath-1">
      <rect class="st0" x="-7.7" y="1.1" width="136.2" height="128"/>
    </clipPath>
  </defs>
  <g>
    <g class="st26">
      <image id="img0" class="st2" width="671" height="687" transform="translate(-55 -1143.9) scale(1.5)" xlink:href="Flux survey-1.png"/>
    </g>
    <text class="st7" transform="translate(766.4 -874.6)"><tspan class="st18" x="0" y="0" xml:space="preserve">					</tspan><tspan x="180" y="0">Flux Bird invites you </tspan></text>
    <text class="st7" transform="translate(1115.7 -764.6)"><tspan x="0" y="0">to complete the</tspan></text>
    <text class="st7" transform="translate(1523.4 -644.4)"><tspan x="0" y="0" xml:space="preserve"> 2025 </tspan></text>
    <text class="st7" transform="translate(880.5 -524.5)"><tspan x="0" y="0">Community Survey! </tspan></text>
    <text class="st4" transform="translate(987.7 -406.6)"><tspan x="0" y="0">Publicly releasable </tspan></text>
    <text class="st4" transform="translate(1062.1 -296.6)"><tspan x="0" y="0">information only.</tspan></text>
    <text class="st13" transform="translate(99.6 -152.6)"><tspan x="0" y="0">https://converged</tspan></text>
    <text class="st13" transform="translate(613.5 -152.6)"><tspan x="0" y="0">-</tspan></text>
    <text class="st13" transform="translate(631.3 -152.6)"><tspan x="0" y="0">computing.org</tspan></text>
    <text class="st13" transform="translate(1049.5 -152.6)"><tspan x="0" y="0">/community</tspan></text>
    <text class="st13" transform="translate(1396.7 -152.6)"><tspan x="0" y="0">-</tspan></text>
    <text class="st13" transform="translate(1414.5 -152.6)"><tspan x="0" y="0">survey</tspan></text>
    <text class="st13" transform="translate(1600.1 -152.6)"><tspan x="0" y="0">-</tspan></text>
    <text class="st13" transform="translate(1617.9 -152.6)"><tspan x="0" y="0">2025</tspan></text>
    <g>
      <polygon class="st10" points="1683.4 -521.2 1695.7 -525.5 1686.4 -529.8 1683.4 -521.2"/>
      <polygon class="st20" points="1719.1 -556.5 1701.7 -573.9 1698.9 -565.9 1719.1 -556.5"/>
      <polygon class="st10" points="1698.9 -565.9 1695.8 -556.9 1734.2 -539 1735.9 -539.6 1719.1 -556.5 1698.9 -565.9"/>
      <polygon class="st20" points="1692.7 -547.8 1721.3 -534.5 1734.2 -539 1695.8 -556.9 1692.7 -547.8"/>
      <polygon class="st10" points="1689.5 -538.8 1708.5 -530 1721.3 -534.5 1692.7 -547.8 1689.5 -538.8"/>
      <polygon class="st20" points="1689.5 -538.8 1686.4 -529.8 1695.7 -525.5 1708.5 -530 1689.5 -538.8"/>
      <path class="st24" d="M1726.2-563.9c9.7,9.5,14.6,20,11.1,23.5-3.5,3.5-14.2-1.5-23.8-11-9.7-9.5-14.6-20-11.1-23.5,3.5-3.5,14.2,1.5,23.8,11Z"/>
      <path class="st21" d="M1714.2-587.8c-2.3-3.2.2-4.7,3.3-4.1-3-3.6-1.1-6.2,3.5-5.2,1.5.3-.6,2.8-1.9,2.7,3.9,2.9,1.8,6-2.4,5.3,3.7,5-2.6,3.8-5.4,4-.7,3.8,3.6,8.1,2.1,8.1-3.2,0-8.3-11.9.7-10.8Z"/>
      <path class="st16" d="M1744.3-580.9c-2.1,1-8.2-8.5-.8-8.6-4.3-3.9-3.7-5.7,2-5.9-6.5-6.6,3.8-8.9,4.9-5.4.3,1.1-3.2-.9-4.3,1-1.3,2.2,8.1,7.7-1.6,7.3,3.6,3.6,3.8,5.3-1.9,5.9.7,1,3,5,1.7,5.6Z"/>
      <path class="st25" d="M1746.7-558.5l2.2-1.8s2.1,3,3.5,4.1c1.1-5.1.8-8.2,6.8-4.7-3.4-8.9,2.2-5.5,7.4-3.1-.3-2.3,0-2,2.3-2.6,2,7.5-3.4,5.4-7.8,2.9,2.5,6.8-.1,6.5-5.6,4.2,0,2.9-1,6.2-2.8,6.4-2,.3-6-5.3-6-5.3Z"/>
      <path class="st22" d="M1730.7-579.9c-2.6,3.4-6.7,5.4-9.7,8.4-3.2,3.1-5.1,11.8-5.1,11.8,0,0,1.1-9,4.2-12.4,2.7-3.1,6.7-5.4,8.8-9,3.8-6.5.4-15.2-4.4-20.2,1-.9,2.4-2.1,3.2-2.8,4.6,5.9,8.6,17.2,3.1,24.4Z"/>
      <path class="st16" d="M1735.1-572.5c-3.8,2.7-6.4,6.7-9,10.4-2.3,3.3-9.6,7.4-9.6,7.4,0,0,6.9-4.7,9-8.2,2.5-4.3,5.1-8.7,9.1-11.9,8-6.2,19.6-5.5,28.7-2.3-.5,1.3-1.6,4-1.6,4,0,0-18.9-5.1-26.5.4Z"/>
      <path class="st21" d="M1751.1-573.2c-2.4,3.2-3.6,7-5.5,10.6-1.7,3.3-4,6.4-7.3,8.2-3.7,1.9-11.9,1.2-11.9,1.2,0,0,8.2,0,11.6-2.4,3.5-2.3,5.3-6.3,6.6-10.1,2.5-7.1,5.7-14.8,13.2-18,.5,1.4,1.5,4.1,1.5,4.1,0,0-4.1,1.1-8.1,6.4Z"/>
      <rect class="st21" x="1686.4" y="-591" width="5.7" height="5.7" transform="translate(910.9 1022.3) rotate(-45)"/>
      <rect class="st16" x="1692" y="-578.2" width="5.7" height="5.7" transform="translate(903.3 1029.9) rotate(-45)"/>
      <rect class="st25" x="1702.3" y="-597.4" width="5.7" height="5.7" transform="translate(920.1 1031.8) rotate(-45)"/>
      <rect class="st22" x="1746.4" y="-548.9" width="5.7" height="5.7" transform="translate(898.5 1077) rotate(-45)"/>
      <rect class="st25" x="1737.4" y="-535" width="5.7" height="5.7" transform="translate(886 1074.7) rotate(-45)"/>
      <rect class="st16" x="1755.2" y="-531.8" width="5.7" height="5.7" transform="translate(888.9 1088.2) rotate(-45)"/>
      <rect class="st21" x="1759.2" y="-550.3" width="5.7" height="5.7" transform="translate(903.2 1085.6) rotate(-45)"/>
      <rect class="st21" x="1752.5" y="-593.1" width="5.7" height="5.7" transform="translate(931.5 1068.3) rotate(-45)"/>
      <rect class="st25" x="1709" y="-568.7" width="5.7" height="5.7" transform="translate(901.5 1044.8) rotate(-45)"/>
    </g>
    <g>
      <path id="path2998" class="st14" d="M1357.7-742.3c-1.3.3-.9.3-2.2,6.1-.9,4.1-2,7.8-3.9,11.5-2,3.8-3.8,7.6-5.7,11.4-3.4-8.7-11.4-15.6-20.8-16.8-11-1.9-22.2,4.2-28.2,13.2-4.2,5.7-6,11.9-8.4,18.4-.6.8-1.1,1.7-1.8,2.5s-1.8,2.1,1,2.4c.5.1.5.3.4.7-.2,1.7-.2,4.2-.2,6s0,3.2.3,4.8c.3,3.2,1,6.3,2.2,9.3s3.1,6.4,5.4,9c5.6,6.2,14.1,9.9,22.6,9,5.4-.2,10.6-2.9,14.7-6.3-2.1,7.3-2.8,15.8-8.9,21-1.8,1.4-4.8,2.5-6.9,1.4-.3-.1.2-2.1.2-2.4.1-1.1.1-2.3-.4-3.4-.5-1-1.4-1.7-2.3-2.2-1.2-.7-2.7-1.1-4.1-.8-1.4.3-2.5,1.4-3.3,2.5-1,1.5-1.6,3.4-.9,5.1.6,1.5,2.1,2.4,3.5,3,7.9,3.4,15.9-.6,22.7-4.5.3-.2.7,0,.6.4-.2,1.6-.6,4-.9,3.9-2.6-.5-3-1.6-2.1,2.3.7,3.3,1.1,5,1.6,5.1.7.2,5.1-5.4,5.1-5.4,1.1-1.5-.5-1.1-2-1.4-.3,0,0-.7,0-1.3.3-1.8,1.3-7.1,3.3-10.5,2-3.3,4.2-8,5.5-11.6,3.7,9.5,13.1,17.2,23.5,17.7,11.5,1,22.1-6.4,27.6-16,1.8-3,3-5.2,4.3-8.5,2,.5,3.5,1.2,1.9-2.3-1-5.8,1.4-10.8,1-16.6.5-12.2-5.8-25.2-17.3-30.1-8.9-4-20.4-2.2-27.8,4.1,2.1-7.1,3.9-15.7,9.5-21,2.3-2,5.9-2.6,8.8-1.8-.1,0-.3,2.5-.3,2.7,0,1,.1,2.4.6,3.2,1.1,1.8,3,2.4,4.3,2.5,1.3.2,2.8-.2,3.9-.9,1.9-1.2,3.3-4.8,2-7.4-2-3.8-9.5-5-14.8-4.6-5.3.6-10,4.2-14.3,7.2.6-3.4,1.3-6.7,2-10.1-.2-.4-.6-.7-1.1-.6ZM1321.1-728.1c10.8-.4,21.3,7.7,23.4,18.3,0,1.2-.9-.9-1-1.1-4-7.9-13.1-12.7-21.9-11.5-9.3,1-16.6,8.4-20.1,16.6-1.9,4.2-2.3,9.1-5.5,12.4s1.3,1.7,1.5,2.3,0,1.7-.1,2.3c-.6,9.8,3.5,20.6,12.5,25.3,7.6,4.1,17.9,3.1,24.3-2.9-1,2.9-3.9,5.3-6.5,6.6-5.5,3.3-12.4,3.3-18.6,1.8-4.9-1.2-9.4-4.7-12.3-8.7s-5-9.1-6-14.4c-.6-3.4-.5-8-.3-11.6s-.1-.4.4-.3c3.6.8,1.5-.5.5-4.7-.1-5.4,3.1-9.9,5.3-14.7,4.6-9,14-16.1,24.4-15.8ZM1323.6-720.1c7.1-.6,13.7,3.3,17.5,9.6,1.3,2.4.7,1.9-.6,1.2-2.2-1.5-4.9-3.7-7.9-4.6-4.8-1.4-10.1-.8-14.2,2.1-5.9,3.8-8.8,10.6-10.8,17.1-.3,1.3-1.5,3.2-2.4,4.3s0,1.5.3,1.6c.7.1,1.5.2,1.5,1-.4,7.2,2.2,14.5,8.5,18.4,6,3.9,14.9,3.3,19.9-1.9-1.3,3-4.3,4.9-7.1,6.5-7,3.4-15.9,2-21.6-3.4-4.5-4.1-6.5-10.2-7-16.2-.1-2.1-.2-4.2,0-6.3.5,0,1.9.8,2.3.3.4-.5-.9-1.8-1.3-4.1-.2-5.4,2.4-10.1,5.1-14.7,3.7-5.9,10.3-11,17.7-10.8ZM1374.5-715.7c10.4.1,20.8,8.1,23.8,18.3,2.4,7.9,2.3,16.6,0,24.5-.8,2.5-3.8,3.6-3.7,4.6,1.1.8,2.5.7,2.2,1.3-3.4,9.2-10.5,18.5-20.1,21.5-4.5,1.2-9.5,1.5-14,.3-5.9-1.8-11.1-5.4-14.2-10.7-1.3-2.3-3.5-5.3-2.8-8.1,3.3,9,13.3,15.1,22.8,13.8,9.8-1,17.3-9.1,20.8-17.9.5-1-.1-1.1,1.7-.3,2.6,1.5,1.4-.9,1.2-3.6-.5-1.5.6-6.1.9-15.1.3-10.1-6.5-20.3-16.3-23.5-4.9-1.6-10.4-1.2-15.2.5-.9.2-2.2.4-2.9.2,4.5-3.5,9.9-5.9,15.8-5.9h0ZM1327.3-712.3c3.5,0,7.5,1.4,10.2,3.8-2,.5-3.7-.5-5.9.5-.6.3-1.2,1.8-1.3,2.4-.4,1.9,1.9,1.6,3.1,1.6,2.3,0,4.6,0,6.9,0,1,.1,1.2,1.6,1.2,2.4.1,1.3-.1,2.5-.3,3.8-.6,3.8-1.4,7.5-2.4,11.2s-1.4,5.3-1.9,8c-1.1,6.1-7.6,9.8-13.5,9.1-8.1,0-14.1-8.1-14.1-15.8,0-3.5-.1-3.1,1.6-3s.3,0,.4,0c1.3,0,.1-1.4,0-1.9-1-3-1.6-4.4.5-9.9,2.4-6.3,7.9-12.3,15.1-12.3.1,0,.3,0,.4,0ZM1373-709.2c10.3,1.2,18.2,11.7,17.8,21.8,0,5.4-.4,13.1-4.7,15.6-2,1.3-.2,1.4,1.7,2.1-2.9,8.1-9.3,15.4-18,17-6.3,1.3-13.1-.6-17.6-5.3-2.2-2.5-4.5-5.8-5.2-9-.1-1.5,0-2,.6-.5,2.9,6,10.2,10.2,16.9,9.4,7.7-.7,13.3-6.2,16.1-13,1.9,1,2.7,1.3,2.4-.7-1.3-5.9,1.4-11.9.2-17.9-.7-7-7.1-14.1-13.5-15.9,2-.1,2.5-2.3,2.5-3.8h.9ZM1360.3-704.6c-1.6.6-4.7,2.9-5.7,3.4.5-1.6,2.3-3.9,4.2-3.6.1,0,2.4-.1,1.5.2h0ZM1365.4-703.2c5.9-.4,11.4,3.4,13.8,8.7,1.4,3.2,2,6.8,1.8,10.3-.1,2.5-.2,5.7-1.8,7.7s-3.5,2.5-3.2,3,1.1.9,1.9,1.2c-2.5,6.2-7.8,12.3-14.9,12.1-7.4.8-14.8-5.8-14.4-13.3,1.5-8,3.3-16,5.8-23.7,2.3-3.7,6.5-6.2,10.9-6Z"/>
      <g>
        <path id="path3032" class="st15" d="M1395.4-726c-7.4.9-14.8,1.9-22.1,2.8-1.8.3-1.2,3.1.5,3,2.8.4,6.2,0,8.4,1.9-3.7,12.5-8.2,24.9-12.2,37.3-2.9,9.3-6.5,18.4-9,27.8-.6,3.5,2.1,6.9,5.6,7.3,7.2,1,14.1-2.8,19-7.8,2.3-2.2,4.5-4.5,6.5-6.9-1.5-.9-3.2-2.5-4.4-.3-3.6,2.9-6.6,6.8-10.9,8.8-1.2.4-3.7.4-3.1-1.6,2.1-8.1,5.3-16,7.8-24,5.2-15.4,10.6-30.8,15.5-46.3.5-1.2-.1-2.2-1.4-1.9h0Z"/>
        <path id="path3034" class="st15" d="M1418.6-698.1c-7.1,1-14.2,1.9-21.2,2.9-1.5.8-.7,3.2,1.1,2.8,2.2.4,5.3-.4,6.7,1.6.2,3.8-1.9,7.4-2.8,11-2.7,8.9-6.5,17.6-8,26.8-.7,3.6,2.2,7.1,5.8,7.3,7.8,1.1,15.4-2.7,20.8-8.1,5.5-5.1,10.2-11,15-16.8-1.9,6.3-4.7,12.5-5.3,19.1-.2,3.7,3.6,6.1,7,5.9,4.8.5,9.5-1.4,12.9-4.7,2.9-2.8,6.1-5.5,8.5-8.8,0-1.3-1.9-1.4-2.7-2.2-3.4,3.3-6.6,7.1-11,8.9-1,.4-2.6,0-1.8-1.4,4.2-14.2,9.6-28.2,14.1-42.4-.6-1.6-3.1-.6-4.5-1-2.4.2-5.2-.6-7.5.5-4.4,8.6-8.2,17.8-14.4,25.3-5.4,6.5-10.6,13.5-18.3,17.5-1.6.6-3.7,1.4-5.2.6-1.9-1.6.3-4.1.5-5.9,3.8-12.8,8.3-25.4,12-38.1,0-.8-1-.9-1.6-.8h0Z"/>
        <path id="path3036" class="st15" d="M1488.7-697.9c-6.2.7-12.5,2-18.5,3.8-1,1.4,1,3.7,2.7,2.6,3-.2,6.5-1.7,9.4-.2,2.5,2.8,2.6,6.8,4,10.1,1,3.4,2.4,7,3,10.4-5,5.6-9.8,11.4-15.4,16.5-1.5,1.2-3.3,2.4-5.2,1.3-3.4-1-7.5-3-10.6-.4-2.4,1.8-1.9,5.7.5,7.2,4.8,2.9,11.1,1.3,15.1-2.2,5.9-4.6,11.3-10.6,17.3-16.7,2.4,5.9,3.4,12.5,6.8,17.9,2.3,3.2,6.8,2.9,10.2,2.3,5.5-1.7,9.2-6.6,13-10.7,1-.9,2.4-2.9.4-3.5-2.2-1.2-3.7,1.7-5.2,2.8-2,1.3-3.5,4.3-6.1,4.3-3.4-.4-3.8-4.6-4.9-7.1-1.8-5.7-3.8-11.4-4.9-17.3,3.9-4.6,7.3-10.1,12.7-13,3.6-.6,7,2.7,10.7,1.4,3.5-.5,4.9-5.8,1.8-7.7-3.3-2.6-8.1-1.5-11.7.1-4.8,2.6-8.6,6.9-12.4,10.7-.8.4-2.6,4.1-2.9,2.1-1.3-4.4-2.1-9.4-5.1-13-1.3-1.2-3.1-1.8-4.9-1.7h0Z"/>
        <path id="path3905" class="st15" d="M1372.5-739c-3.4.3-6.7,1.3-9.6,3s-4.2,2.4-5.9,4.1-3.1,3.7-4.6,5.6c-1,1.3-2.2,3.1-2.9,4.6-.8,1.6-1.5,3.3-2.3,4.9-.8,1.6-1.2,3.1-1.8,4.8-1,2.6,0,2.5-1.6,2.9-4.2,1.1-10.4.1-12.4,1s-1.6,2.1-1.2,3.2,1.8.8,5.1.9,6.8,0,6.8-.2c-1.2,5.8-2.2,11.7-3.6,17.7-.7,4-1.8,7.4-2.6,11.8-.6,2.4-1,3.8-1.6,6.5-.5,2-.8,3-1.2,5.2-1,6-2.7,12-5.3,17.5-1.9,3.9-6.2,7.7-10.7,6.4,0-1.5.7-3.1.3-4.5-.3-1.6-1.6-2.8-3.1-3.4-1.2-.5-2.6-.7-3.9-.4-2.4.6-4.6,3.4-4.5,5.9.2,3.6,3.9,4.9,7,5.7,6,1.6,12.7-1,17.7-4.2s8.4-9.1,11-15c1.1-2.4,2.1-4.8,3.1-7.3.9-2.5,1.4-3.4,2.1-5.4.5-1.6.7-2.8,1.2-4.7,1.7-8.7,3.7-17.2,6-25.8.7-2.5.2-5.9,3.3-6.7,4-.7,8.2,0,12.4-.5s3.3-5,1.3-5.3c-2.3-.3-4.9,0-7.2,0-1.1,0-2.3.5-3.4.5-.5,0-2.6.5-2.9,0-.1-.2-.1-1.2-.1-1.5.2-2.8,1.2-5.5,2-8.1,1.8-5.8,4.1-11.6,10-14.4,1.8-.7,4.3-1.1,5.8-.3.1,0-.4,2.6-.4,2.9,0,1,0,2,.4,2.9,1.1,2.1,4.3,2.7,6.4,2.3,4.2-.8,6.1-4.6,3.9-8.3-1.5-2.5-3.9-3.5-6.7-4.1-2.1-.4-4.4-.6-6.5-.4Z"/>
      </g>
    </g>
  </g>
  <g>
    <g class="st19">
      <image id="img01" data-name="img0" class="st2" width="671" height="687" transform="translate(-7.7 -10.4) scale(.2)" xlink:href="Flux survey-2.png"/>
    </g>
    <text class="st6" transform="translate(106.3 27)"><tspan class="st17" x="0" y="0" xml:space="preserve">					</tspan><tspan x="25" y="0">Flux Bird invites you </tspan></text>
    <text class="st6" transform="translate(154.7 42.3)"><tspan x="0" y="0">to complete the</tspan></text>
    <text class="st5" transform="translate(211.3 58.9)"><tspan class="st11" x="0" y="0"> </tspan><tspan class="st8" x="3.2" y="0">2025 </tspan></text>
    <text class="st1" transform="translate(118.1 75.6)"><tspan x="0" y="0">Community Survey! </tspan></text>
    <text class="st3" transform="translate(161.7 95.7)"><tspan x="0" y="0">Publicly releasable </tspan></text>
    <text class="st3" transform="translate(171 106.9)"><tspan x="0" y="0">information only.</tspan></text>
    <text class="st12" transform="translate(13.7 127.2)"><tspan x="0" y="0">https://converged</tspan></text>
    <text class="st12" transform="translate(85 127.2)"><tspan x="0" y="0">-</tspan></text>
    <text class="st12" transform="translate(87.5 127.2)"><tspan x="0" y="0">computing.org</tspan></text>
    <text class="st12" transform="translate(145.6 127.2)"><tspan x="0" y="0">/community</tspan></text>
    <text class="st12" transform="translate(193.7 127.2)"><tspan x="0" y="0">-</tspan></text>
    <text class="st12" transform="translate(196.2 127.2)"><tspan x="0" y="0">survey</tspan></text>
    <text class="st12" transform="translate(222 127.2)"><tspan x="0" y="0">-</tspan></text>
    <text class="st12" transform="translate(224.4 127.2)"><tspan x="0" y="0">2025</tspan></text>
    <g>
      <polygon class="st10" points="233.5 76 235.2 75.4 233.9 74.8 233.5 76"/>
      <polygon class="st20" points="238.5 71.1 236.1 68.7 235.7 69.8 238.5 71.1"/>
      <polygon class="st10" points="235.7 69.8 235.3 71.1 240.6 73.6 240.8 73.5 238.5 71.1 235.7 69.8"/>
      <polygon class="st20" points="234.8 72.3 238.8 74.2 240.6 73.6 235.3 71.1 234.8 72.3"/>
      <polygon class="st10" points="234.4 73.6 237 74.8 238.8 74.2 234.8 72.3 234.4 73.6"/>
      <polygon class="st20" points="234.4 73.6 233.9 74.8 235.2 75.4 237 74.8 234.4 73.6"/>
      <path class="st24" d="M239.5,70.1c1.3,1.3,2,2.8,1.5,3.3-.5.5-2-.2-3.3-1.5-1.3-1.3-2-2.8-1.5-3.3.5-.5,2,.2,3.3,1.5Z"/>
      <path class="st21" d="M237.8,66.8c-.3-.4,0-.7.5-.6-.4-.5-.2-.9.5-.7.2,0,0,.4-.3.4.5.4.2.8-.3.7.5.7-.4.5-.7.6,0,.5.5,1.1.3,1.1-.4,0-1.2-1.6,0-1.5Z"/>
      <path class="st16" d="M242,67.7c-.3.1-1.1-1.2-.1-1.2-.6-.5-.5-.8.3-.8-.9-.9.5-1.2.7-.8,0,.1-.4-.1-.6.1-.2.3,1.1,1.1-.2,1,.5.5.5.7-.3.8.1.1.4.7.2.8Z"/>
      <path class="st25" d="M242.3,70.8l.3-.3s.3.4.5.6c.2-.7.1-1.1.9-.6-.5-1.2.3-.8,1-.4,0-.3,0-.3.3-.4.3,1-.5.7-1.1.4.4.9,0,.9-.8.6,0,.4-.1.9-.4.9-.3,0-.8-.7-.8-.7Z"/>
      <path class="st22" d="M240.1,67.9c-.4.5-.9.7-1.3,1.2-.4.4-.7,1.6-.7,1.6,0,0,.2-1.2.6-1.7.4-.4.9-.8,1.2-1.3.5-.9,0-2.1-.6-2.8.1-.1.3-.3.4-.4.6.8,1.2,2.4.4,3.4Z"/>
      <path class="st16" d="M240.7,68.9c-.5.4-.9.9-1.3,1.4-.3.5-1.3,1-1.3,1,0,0,1-.6,1.2-1.1.4-.6.7-1.2,1.3-1.6,1.1-.9,2.7-.8,4-.3,0,.2-.2.6-.2.6,0,0-2.6-.7-3.7,0Z"/>
      <path class="st21" d="M242.9,68.8c-.3.4-.5,1-.8,1.5-.2.5-.6.9-1,1.1-.5.3-1.7.2-1.7.2,0,0,1.1,0,1.6-.3.5-.3.7-.9.9-1.4.4-1,.8-2.1,1.8-2.5,0,.2.2.6.2.6,0,0-.6.2-1.1.9Z"/>
      <rect class="st21" x="233.9" y="66.3" width=".8" height=".8" transform="translate(21.5 185.3) rotate(-45)"/>
      <rect class="st16" x="234.7" y="68.1" width=".8" height=".8" transform="translate(20.4 186.3) rotate(-45)"/>
      <rect class="st25" x="236.2" y="65.5" width=".8" height=".8" transform="translate(22.7 186.6) rotate(-45)"/>
      <rect class="st22" x="242.3" y="72.2" width=".8" height=".8" transform="translate(19.8 192.9) rotate(-45)"/>
      <rect class="st25" x="241" y="74.1" width=".8" height=".8" transform="translate(18 192.5) rotate(-45)"/>
      <rect class="st16" x="243.5" y="74.6" width=".8" height=".8" transform="translate(18.4 194.4) rotate(-45)"/>
      <rect class="st21" x="244.1" y="72" width=".8" height=".8" transform="translate(20.4 194.1) rotate(-45)"/>
      <rect class="st21" x="243.1" y="66.1" width=".8" height=".8" transform="translate(24.3 191.7) rotate(-45)"/>
      <rect class="st25" x="237.1" y="69.4" width=".8" height=".8" transform="translate(20.2 188.4) rotate(-45)"/>
    </g>
    <g>
      <path id="path29981" data-name="path2998" class="st14" d="M188.3,45.3c-.2,0-.1,0-.3.8-.1.6-.3,1.1-.5,1.6-.3.5-.5,1.1-.8,1.6-.5-1.2-1.6-2.2-2.9-2.3-1.5-.3-3.1.6-3.9,1.8-.6.8-.8,1.7-1.2,2.6,0,.1-.2.2-.2.3s-.2.3.1.3c0,0,0,0,0,0,0,.2,0,.6,0,.8s0,.4,0,.7c0,.4.1.9.3,1.3s.4.9.8,1.2c.8.9,2,1.4,3.1,1.2.8,0,1.5-.4,2-.9-.3,1-.4,2.2-1.2,2.9-.3.2-.7.3-1,.2s0-.3,0-.3c0-.2,0-.3,0-.5,0-.1-.2-.2-.3-.3-.2,0-.4-.2-.6-.1-.2,0-.3.2-.5.4-.1.2-.2.5-.1.7,0,.2.3.3.5.4,1.1.5,2.2,0,3.2-.6,0,0,0,0,0,0,0,.2,0,.6-.1.5-.4,0-.4-.2-.3.3,0,.5.2.7.2.7.1,0,.7-.8.7-.8.1-.2,0-.2-.3-.2,0,0,0,0,0-.2,0-.3.2-1,.5-1.5.3-.5.6-1.1.8-1.6.5,1.3,1.8,2.4,3.3,2.5,1.6.1,3.1-.9,3.8-2.2.3-.4.4-.7.6-1.2.3,0,.5.2.3-.3-.1-.8.2-1.5.1-2.3,0-1.7-.8-3.5-2.4-4.2-1.2-.6-2.8-.3-3.9.6.3-1,.5-2.2,1.3-2.9.3-.3.8-.4,1.2-.3,0,0,0,.3,0,.4,0,.1,0,.3,0,.4.2.2.4.3.6.4.2,0,.4,0,.5-.1.3-.2.5-.7.3-1-.3-.5-1.3-.7-2.1-.6-.7,0-1.4.6-2,1,0-.5.2-.9.3-1.4,0,0,0,0-.2,0ZM183.2,47.3c1.5,0,3,1.1,3.3,2.5,0,.2-.1-.1-.1-.2-.6-1.1-1.8-1.8-3-1.6-1.3.1-2.3,1.2-2.8,2.3-.3.6-.3,1.3-.8,1.7s.2.2.2.3,0,.2,0,.3c0,1.4.5,2.9,1.7,3.5,1.1.6,2.5.4,3.4-.4-.1.4-.5.7-.9.9-.8.5-1.7.5-2.6.3-.7-.2-1.3-.7-1.7-1.2s-.7-1.3-.8-2c0-.5,0-1.1,0-1.6s0,0,0,0c.5.1.2,0,0-.6,0-.8.4-1.4.7-2,.6-1.2,1.9-2.2,3.4-2.2ZM183.6,48.4c1,0,1.9.5,2.4,1.3.2.3,0,.3,0,.2-.3-.2-.7-.5-1.1-.6-.7-.2-1.4-.1-2,.3-.8.5-1.2,1.5-1.5,2.4,0,.2-.2.4-.3.6s0,.2,0,.2c0,0,.2,0,.2.1,0,1,.3,2,1.2,2.6.8.5,2.1.5,2.8-.3-.2.4-.6.7-1,.9-1,.5-2.2.3-3-.5-.6-.6-.9-1.4-1-2.2s0-.6,0-.9c0,0,.3.1.3,0,0,0-.1-.2-.2-.6,0-.8.3-1.4.7-2,.5-.8,1.4-1.5,2.5-1.5ZM190.7,49c1.4,0,2.9,1.1,3.3,2.5.3,1.1.3,2.3,0,3.4-.1.4-.5.5-.5.6.2.1.3,0,.3.2-.5,1.3-1.5,2.6-2.8,3-.6.2-1.3.2-1.9,0-.8-.2-1.5-.7-2-1.5-.2-.3-.5-.7-.4-1.1.5,1.2,1.8,2.1,3.2,1.9,1.4-.1,2.4-1.3,2.9-2.5,0-.1,0-.2.2,0,.4.2.2-.1.2-.5,0-.2,0-.8.1-2.1,0-1.4-.9-2.8-2.3-3.3-.7-.2-1.4-.2-2.1,0-.1,0-.3,0-.4,0,.6-.5,1.4-.8,2.2-.8h0ZM184.1,49.5c.5,0,1,.2,1.4.5-.3,0-.5,0-.8,0s-.2.3-.2.3c0,.3.3.2.4.2.3,0,.6,0,1,0,.1,0,.2.2.2.3,0,.2,0,.4,0,.5,0,.5-.2,1-.3,1.6s-.2.7-.3,1.1c-.2.8-1.1,1.4-1.9,1.3-1.1,0-2-1.1-2-2.2,0-.5,0-.4.2-.4s0,0,0,0c.2,0,0-.2,0-.3-.1-.4-.2-.6,0-1.4.3-.9,1.1-1.7,2.1-1.7,0,0,0,0,0,0ZM190.4,49.9c1.4.2,2.5,1.6,2.5,3,0,.7,0,1.8-.7,2.2-.3.2,0,.2.2.3-.4,1.1-1.3,2.1-2.5,2.4-.9.2-1.8,0-2.4-.7-.3-.3-.6-.8-.7-1.2,0-.2,0-.3,0,0,.4.8,1.4,1.4,2.3,1.3,1.1,0,1.8-.9,2.2-1.8.3.1.4.2.3-.1-.2-.8.2-1.6,0-2.5-.1-1-1-2-1.9-2.2.3,0,.4-.3.4-.5h.1ZM188.7,50.6c-.2,0-.7.4-.8.5,0-.2.3-.5.6-.5,0,0,.3,0,.2,0h0ZM189.4,50.8c.8,0,1.6.5,1.9,1.2.2.4.3.9.3,1.4,0,.3,0,.8-.3,1.1s-.5.3-.4.4.2.1.3.2c-.4.9-1.1,1.7-2.1,1.7-1,.1-2.1-.8-2-1.8.2-1.1.5-2.2.8-3.3.3-.5.9-.9,1.5-.8Z"/>
      <g>
        <path id="path30321" data-name="path3032" class="st15" d="M193.6,47.6c-1,.1-2,.3-3.1.4-.2,0-.2.4,0,.4.4,0,.9,0,1.2.3-.5,1.7-1.1,3.4-1.7,5.2-.4,1.3-.9,2.6-1.3,3.9,0,.5.3,1,.8,1,1,.1,2-.4,2.6-1.1.3-.3.6-.6.9-1-.2-.1-.4-.4-.6,0-.5.4-.9,1-1.5,1.2-.2,0-.5,0-.4-.2.3-1.1.7-2.2,1.1-3.3.7-2.1,1.5-4.3,2.1-6.4,0-.2,0-.3-.2-.3h0Z"/>
        <path id="path30341" data-name="path3034" class="st15" d="M196.8,51.5c-1,.1-2,.3-2.9.4-.2.1,0,.5.1.4.3,0,.7,0,.9.2,0,.5-.3,1-.4,1.5-.4,1.2-.9,2.4-1.1,3.7,0,.5.3,1,.8,1,1.1.2,2.1-.4,2.9-1.1.8-.7,1.4-1.5,2.1-2.3-.3.9-.6,1.7-.7,2.7,0,.5.5.9,1,.8.7,0,1.3-.2,1.8-.7.4-.4.8-.8,1.2-1.2,0-.2-.3-.2-.4-.3-.5.5-.9,1-1.5,1.2-.1,0-.4,0-.3-.2.6-2,1.3-3.9,2-5.9,0-.2-.4,0-.6-.1-.3,0-.7,0-1,0-.6,1.2-1.1,2.5-2,3.5-.8.9-1.5,1.9-2.5,2.4-.2,0-.5.2-.7,0-.3-.2,0-.6,0-.8.5-1.8,1.2-3.5,1.7-5.3,0-.1-.1-.1-.2-.1h0Z"/>
        <path id="path30361" data-name="path3036" class="st15" d="M206.5,51.5c-.9,0-1.7.3-2.6.5-.1.2.1.5.4.4.4,0,.9-.2,1.3,0,.3.4.4.9.6,1.4.1.5.3,1,.4,1.4-.7.8-1.4,1.6-2.1,2.3-.2.2-.5.3-.7.2-.5-.1-1-.4-1.5,0-.3.3-.3.8,0,1,.7.4,1.5.2,2.1-.3.8-.6,1.6-1.5,2.4-2.3.3.8.5,1.7.9,2.5.3.4.9.4,1.4.3.8-.2,1.3-.9,1.8-1.5.1-.1.3-.4,0-.5-.3-.2-.5.2-.7.4-.3.2-.5.6-.8.6-.5,0-.5-.6-.7-1-.3-.8-.5-1.6-.7-2.4.5-.6,1-1.4,1.8-1.8.5,0,1,.4,1.5.2.5,0,.7-.8.2-1.1-.5-.4-1.1-.2-1.6,0-.7.4-1.2,1-1.7,1.5-.1,0-.4.6-.4.3-.2-.6-.3-1.3-.7-1.8-.2-.2-.4-.3-.7-.2h0Z"/>
        <path id="path39051" data-name="path3905" class="st15" d="M190.4,45.8c-.5,0-.9.2-1.3.4s-.6.3-.8.6-.4.5-.6.8c-.1.2-.3.4-.4.6-.1.2-.2.5-.3.7-.1.2-.2.4-.2.7-.1.4,0,.4-.2.4-.6.2-1.4,0-1.7.1s-.2.3-.2.5.3.1.7.1.9,0,.9,0c-.2.8-.3,1.6-.5,2.5,0,.6-.2,1-.4,1.6,0,.3-.1.5-.2.9,0,.3-.1.4-.2.7-.1.8-.4,1.7-.7,2.4-.3.5-.9,1.1-1.5.9,0-.2,0-.4,0-.6,0-.2-.2-.4-.4-.5-.2,0-.4,0-.5,0-.3,0-.6.5-.6.8,0,.5.5.7,1,.8.8.2,1.8-.1,2.5-.6s1.2-1.3,1.5-2.1.3-.7.4-1c.1-.3.2-.5.3-.8,0-.2,0-.4.2-.6.2-1.2.5-2.4.8-3.6,0-.4,0-.8.5-.9.6,0,1.1,0,1.7,0s.5-.7.2-.7c-.3,0-.7,0-1,0-.2,0-.3,0-.5,0,0,0-.4,0-.4,0,0,0,0-.2,0-.2,0-.4.2-.8.3-1.1.3-.8.6-1.6,1.4-2,.2-.1.6-.2.8,0s0,.4,0,.4c0,.1,0,.3,0,.4.2.3.6.4.9.3.6-.1.8-.6.5-1.2-.2-.4-.5-.5-.9-.6-.3,0-.6,0-.9,0Z"/>
      </g>
    </g>
    <text class="st6" transform="translate(1979.9 -1043.6)"><tspan class="st17" x="0" y="0" xml:space="preserve">					</tspan><tspan x="25" y="0">Flux Bird invites you </tspan></text>
    <text class="st6" transform="translate(2028.4 -1028.3)"><tspan x="0" y="0">to complete the</tspan></text>
    <text class="st5" transform="translate(2085 -1011.6)"><tspan class="st11" x="0" y="0"> </tspan><tspan class="st8" x="3.2" y="0">2025 </tspan></text>
    <text class="st1" transform="translate(1991.7 -995)"><tspan x="0" y="0">Community Survey! </tspan></text>
    <text class="st3" transform="translate(2035.3 -974.9)"><tspan x="0" y="0">Publicly releasable </tspan></text>
    <text class="st3" transform="translate(2044.7 -963.6)"><tspan x="0" y="0">information only.</tspan></text>
    <text class="st12" transform="translate(1887.4 -943.4)"><tspan x="0" y="0">https://converged</tspan></text>
    <text class="st12" transform="translate(1958.7 -943.4)"><tspan x="0" y="0">-</tspan></text>
    <text class="st12" transform="translate(1961.1 -943.4)"><tspan x="0" y="0">computing.org</tspan></text>
    <text class="st12" transform="translate(2019.2 -943.4)"><tspan x="0" y="0">/community</tspan></text>
    <text class="st12" transform="translate(2067.4 -943.4)"><tspan x="0" y="0">-</tspan></text>
    <text class="st12" transform="translate(2069.8 -943.4)"><tspan x="0" y="0">survey</tspan></text>
    <text class="st12" transform="translate(2095.6 -943.4)"><tspan x="0" y="0">-</tspan></text>
    <text class="st12" transform="translate(2098.1 -943.4)"><tspan x="0" y="0">2025</tspan></text>
    <g>
      <polygon class="st10" points="2107.2 -994.5 2108.9 -995.1 2107.6 -995.7 2107.2 -994.5"/>
      <polygon class="st20" points="2112.1 -999.4 2109.7 -1001.9 2109.3 -1000.7 2112.1 -999.4"/>
      <polygon class="st10" points="2109.3 -1000.7 2108.9 -999.5 2114.2 -997 2114.5 -997.1 2112.1 -999.4 2109.3 -1000.7"/>
      <polygon class="st20" points="2108.5 -998.2 2112.4 -996.4 2114.2 -997 2108.9 -999.5 2108.5 -998.2"/>
      <polygon class="st10" points="2108 -997 2110.7 -995.8 2112.4 -996.4 2108.5 -998.2 2108 -997"/>
      <polygon class="st20" points="2108 -997 2107.6 -995.7 2108.9 -995.1 2110.7 -995.8 2108 -997"/>
      <path class="st24" d="M2113.1-1000.5c1.3,1.3,2,2.8,1.5,3.3-.5.5-2-.2-3.3-1.5-1.3-1.3-2-2.8-1.5-3.3.5-.5,2,.2,3.3,1.5Z"/>
      <path class="st21" d="M2111.4-1003.8c-.3-.4,0-.7.5-.6-.4-.5-.2-.9.5-.7.2,0,0,.4-.3.4.5.4.2.8-.3.7.5.7-.4.5-.7.6,0,.5.5,1.1.3,1.1-.4,0-1.2-1.6,0-1.5Z"/>
      <path class="st16" d="M2115.6-1002.8c-.3.1-1.1-1.2-.1-1.2-.6-.5-.5-.8.3-.8-.9-.9.5-1.2.7-.8,0,.1-.4-.1-.6.1-.2.3,1.1,1.1-.2,1,.5.5.5.7-.3.8.1.1.4.7.2.8Z"/>
      <path class="st25" d="M2116-999.7l.3-.3s.3.4.5.6c.2-.7.1-1.1.9-.6-.5-1.2.3-.8,1-.4,0-.3,0-.3.3-.4.3,1-.5.7-1.1.4.4.9,0,.9-.8.6,0,.4-.1.9-.4.9-.3,0-.8-.7-.8-.7Z"/>
      <path class="st22" d="M2113.7-1002.7c-.4.5-.9.7-1.3,1.2-.4.4-.7,1.6-.7,1.6,0,0,.2-1.2.6-1.7.4-.4.9-.8,1.2-1.3.5-.9,0-2.1-.6-2.8.1-.1.3-.3.4-.4.6.8,1.2,2.4.4,3.4Z"/>
      <path class="st16" d="M2114.3-1001.7c-.5.4-.9.9-1.3,1.4-.3.5-1.3,1-1.3,1,0,0,1-.6,1.2-1.1.4-.6.7-1.2,1.3-1.6,1.1-.9,2.7-.8,4-.3,0,.2-.2.6-.2.6,0,0-2.6-.7-3.7,0Z"/>
      <path class="st21" d="M2116.6-1001.8c-.3.4-.5,1-.8,1.5-.2.5-.6.9-1,1.1-.5.3-1.7.2-1.7.2,0,0,1.1,0,1.6-.3.5-.3.7-.9.9-1.4.4-1,.8-2.1,1.8-2.5,0,.2.2.6.2.6,0,0-.6.2-1.1.9Z"/>
      <rect class="st21" x="2107.6" y="-1004.2" width=".8" height=".8" transform="translate(1327.5 1196.6) rotate(-45)"/>
      <rect class="st16" x="2108.4" y="-1002.5" width=".8" height=".8" transform="translate(1326 1197.5) rotate(-45)"/>
      <rect class="st25" x="2109.8" y="-1005.1" width=".8" height=".8" transform="translate(1328.6 1197.9) rotate(-45)"/>
      <rect class="st22" x="2115.9" y="-998.4" width=".8" height=".8" transform="translate(1325.5 1204.2) rotate(-45)"/>
      <rect class="st25" x="2114.7" y="-996.5" width=".8" height=".8" transform="translate(1324.3 1204) rotate(-45)"/>
      <rect class="st16" x="2117.1" y="-996" width=".8" height=".8" transform="translate(1324.2 1205.7) rotate(-45)"/>
      <rect class="st21" x="2117.7" y="-998.6" width=".8" height=".8" transform="translate(1326.1 1205.3) rotate(-45)"/>
      <rect class="st21" x="2116.8" y="-1004.5" width=".8" height=".8" transform="translate(1330.1 1203) rotate(-45)"/>
      <rect class="st25" x="2110.7" y="-1001.1" width=".8" height=".8" transform="translate(1326 1199.7) rotate(-45)"/>
    </g>
    <g>
      <path id="path29982" data-name="path2998" class="st14" d="M2062-1025.2c-.2,0-.1,0-.3.8-.1.6-.3,1.1-.5,1.6-.3.5-.5,1.1-.8,1.6-.5-1.2-1.6-2.2-2.9-2.3-1.5-.3-3.1.6-3.9,1.8-.6.8-.8,1.7-1.2,2.6,0,.1-.2.2-.2.3s-.2.3.1.3c0,0,0,0,0,0,0,.2,0,.6,0,.8s0,.4,0,.7c0,.4.1.9.3,1.3s.4.9.8,1.2c.8.9,2,1.4,3.1,1.2.8,0,1.5-.4,2-.9-.3,1-.4,2.2-1.2,2.9-.3.2-.7.3-1,.2s0-.3,0-.3c0-.2,0-.3,0-.5,0-.1-.2-.2-.3-.3-.2,0-.4-.2-.6-.1-.2,0-.3.2-.5.4-.1.2-.2.5-.1.7,0,.2.3.3.5.4,1.1.5,2.2,0,3.2-.6,0,0,0,0,0,0,0,.2,0,.6-.1.5-.4,0-.4-.2-.3.3,0,.5.2.7.2.7.1,0,.7-.8.7-.8.1-.2,0-.2-.3-.2,0,0,0,0,0-.2,0-.3.2-1,.5-1.5.3-.5.6-1.1.8-1.6.5,1.3,1.8,2.4,3.3,2.5,1.6.1,3.1-.9,3.8-2.2.3-.4.4-.7.6-1.2.3,0,.5.2.3-.3-.1-.8.2-1.5.1-2.3,0-1.7-.8-3.5-2.4-4.2-1.2-.6-2.8-.3-3.9.6.3-1,.5-2.2,1.3-2.9.3-.3.8-.4,1.2-.3,0,0,0,.3,0,.4,0,.1,0,.3,0,.4.2.2.4.3.6.4.2,0,.4,0,.5-.1.3-.2.5-.7.3-1-.3-.5-1.3-.7-2.1-.6-.7,0-1.4.6-2,1,0-.5.2-.9.3-1.4,0,0,0,0-.2,0ZM2056.9-1023.3c1.5,0,3,1.1,3.3,2.5,0,.2-.1-.1-.1-.2-.6-1.1-1.8-1.8-3-1.6-1.3.1-2.3,1.2-2.8,2.3-.3.6-.3,1.3-.8,1.7s.2.2.2.3,0,.2,0,.3c0,1.4.5,2.9,1.7,3.5,1.1.6,2.5.4,3.4-.4-.1.4-.5.7-.9.9-.8.5-1.7.5-2.6.3-.7-.2-1.3-.7-1.7-1.2s-.7-1.3-.8-2c0-.5,0-1.1,0-1.6s0,0,0,0c.5.1.2,0,0-.6,0-.8.4-1.4.7-2,.6-1.2,1.9-2.2,3.4-2.2ZM2057.2-1022.1c1,0,1.9.5,2.4,1.3.2.3,0,.3,0,.2-.3-.2-.7-.5-1.1-.6-.7-.2-1.4-.1-2,.3-.8.5-1.2,1.5-1.5,2.4,0,.2-.2.4-.3.6s0,.2,0,.2c0,0,.2,0,.2.1,0,1,.3,2,1.2,2.6.8.5,2.1.5,2.8-.3-.2.4-.6.7-1,.9-1,.5-2.2.3-3-.5-.6-.6-.9-1.4-1-2.2s0-.6,0-.9c0,0,.3.1.3,0,0,0-.1-.2-.2-.6,0-.8.3-1.4.7-2,.5-.8,1.4-1.5,2.5-1.5ZM2064.3-1021.5c1.4,0,2.9,1.1,3.3,2.5.3,1.1.3,2.3,0,3.4-.1.4-.5.5-.5.6.2.1.3,0,.3.2-.5,1.3-1.5,2.6-2.8,3-.6.2-1.3.2-1.9,0-.8-.2-1.5-.7-2-1.5-.2-.3-.5-.7-.4-1.1.5,1.2,1.8,2.1,3.2,1.9,1.4-.1,2.4-1.3,2.9-2.5,0-.1,0-.2.2,0,.4.2.2-.1.2-.5,0-.2,0-.8.1-2.1,0-1.4-.9-2.8-2.3-3.3-.7-.2-1.4-.2-2.1,0-.1,0-.3,0-.4,0,.6-.5,1.4-.8,2.2-.8h0ZM2057.7-1021.1c.5,0,1,.2,1.4.5-.3,0-.5,0-.8,0s-.2.3-.2.3c0,.3.3.2.4.2.3,0,.6,0,1,0,.1,0,.2.2.2.3,0,.2,0,.4,0,.5,0,.5-.2,1-.3,1.6s-.2.7-.3,1.1c-.2.8-1.1,1.4-1.9,1.3-1.1,0-2-1.1-2-2.2,0-.5,0-.4.2-.4s0,0,0,0c.2,0,0-.2,0-.3-.1-.4-.2-.6,0-1.4.3-.9,1.1-1.7,2.1-1.7,0,0,0,0,0,0ZM2064.1-1020.6c1.4.2,2.5,1.6,2.5,3,0,.7,0,1.8-.7,2.2-.3.2,0,.2.2.3-.4,1.1-1.3,2.1-2.5,2.4-.9.2-1.8,0-2.4-.7-.3-.3-.6-.8-.7-1.2,0-.2,0-.3,0,0,.4.8,1.4,1.4,2.3,1.3,1.1,0,1.8-.9,2.2-1.8.3.1.4.2.3-.1-.2-.8.2-1.6,0-2.5-.1-1-1-2-1.9-2.2.3,0,.4-.3.4-.5h.1ZM2062.3-1020c-.2,0-.7.4-.8.5,0-.2.3-.5.6-.5,0,0,.3,0,.2,0h0ZM2063-1019.8c.8,0,1.6.5,1.9,1.2.2.4.3.9.3,1.4,0,.3,0,.8-.3,1.1s-.5.3-.4.4.2.1.3.2c-.4.9-1.1,1.7-2.1,1.7-1,.1-2.1-.8-2-1.8.2-1.1.5-2.2.8-3.3.3-.5.9-.9,1.5-.8Z"/>
      <g>
        <path id="path30322" data-name="path3032" class="st15" d="M2067.2-1023c-1,.1-2,.3-3.1.4-.2,0-.2.4,0,.4.4,0,.9,0,1.2.3-.5,1.7-1.1,3.4-1.7,5.2-.4,1.3-.9,2.6-1.3,3.9,0,.5.3,1,.8,1,1,.1,2-.4,2.6-1.1.3-.3.6-.6.9-1-.2-.1-.4-.4-.6,0-.5.4-.9,1-1.5,1.2-.2,0-.5,0-.4-.2.3-1.1.7-2.2,1.1-3.3.7-2.1,1.5-4.3,2.1-6.4,0-.2,0-.3-.2-.3h0Z"/>
        <path id="path30342" data-name="path3034" class="st15" d="M2070.4-1019.1c-1,.1-2,.3-2.9.4-.2.1,0,.5.1.4.3,0,.7,0,.9.2,0,.5-.3,1-.4,1.5-.4,1.2-.9,2.4-1.1,3.7,0,.5.3,1,.8,1,1.1.2,2.1-.4,2.9-1.1.8-.7,1.4-1.5,2.1-2.3-.3.9-.6,1.7-.7,2.7,0,.5.5.9,1,.8.7,0,1.3-.2,1.8-.7.4-.4.8-.8,1.2-1.2,0-.2-.3-.2-.4-.3-.5.5-.9,1-1.5,1.2-.1,0-.4,0-.3-.2.6-2,1.3-3.9,2-5.9,0-.2-.4,0-.6-.1-.3,0-.7,0-1,0-.6,1.2-1.1,2.5-2,3.5-.8.9-1.5,1.9-2.5,2.4-.2,0-.5.2-.7,0-.3-.2,0-.6,0-.8.5-1.8,1.2-3.5,1.7-5.3,0-.1-.1-.1-.2-.1h0Z"/>
        <path id="path30362" data-name="path3036" class="st15" d="M2080.2-1019.1c-.9,0-1.7.3-2.6.5-.1.2.1.5.4.4.4,0,.9-.2,1.3,0,.3.4.4.9.6,1.4.1.5.3,1,.4,1.4-.7.8-1.4,1.6-2.1,2.3-.2.2-.5.3-.7.2-.5-.1-1-.4-1.5,0-.3.3-.3.8,0,1,.7.4,1.5.2,2.1-.3.8-.6,1.6-1.5,2.4-2.3.3.8.5,1.7.9,2.5.3.4.9.4,1.4.3.8-.2,1.3-.9,1.8-1.5.1-.1.3-.4,0-.5-.3-.2-.5.2-.7.4-.3.2-.5.6-.8.6-.5,0-.5-.6-.7-1-.3-.8-.5-1.6-.7-2.4.5-.6,1-1.4,1.8-1.8.5,0,1,.4,1.5.2.5,0,.7-.8.2-1.1-.5-.4-1.1-.2-1.6,0-.7.4-1.2,1-1.7,1.5-.1,0-.4.6-.4.3-.2-.6-.3-1.3-.7-1.8-.2-.2-.4-.3-.7-.2h0Z"/>
        <path id="path39052" data-name="path3905" class="st15" d="M2064-1024.8c-.5,0-.9.2-1.3.4s-.6.3-.8.6-.4.5-.6.8c-.1.2-.3.4-.4.6-.1.2-.2.5-.3.7-.1.2-.2.4-.2.7-.1.4,0,.4-.2.4-.6.2-1.4,0-1.7.1s-.2.3-.2.5.3.1.7.1.9,0,.9,0c-.2.8-.3,1.6-.5,2.5,0,.6-.2,1-.4,1.6,0,.3-.1.5-.2.9,0,.3-.1.4-.2.7-.1.8-.4,1.7-.7,2.4-.3.5-.9,1.1-1.5.9,0-.2,0-.4,0-.6,0-.2-.2-.4-.4-.5-.2,0-.4,0-.5,0-.3,0-.6.5-.6.8,0,.5.5.7,1,.8.8.2,1.8-.1,2.5-.6s1.2-1.3,1.5-2.1.3-.7.4-1c.1-.3.2-.5.3-.8,0-.2,0-.4.2-.6.2-1.2.5-2.4.8-3.6,0-.4,0-.8.5-.9.6,0,1.1,0,1.7,0s.5-.7.2-.7c-.3,0-.7,0-1,0-.2,0-.3,0-.5,0,0,0-.4,0-.4,0,0,0,0-.2,0-.2,0-.4.2-.8.3-1.1.3-.8.6-1.6,1.4-2,.2-.1.6-.2.8,0s0,.4,0,.4c0,.1,0,.3,0,.4.2.3.6.4.9.3.6-.1.8-.6.5-1.2-.2-.4-.5-.5-.9-.6-.3,0-.6,0-.9,0Z"/>
      </g>
    </g>
    <text class="st9" transform="translate(175.9 -17.2)"><tspan x="0" y="0">Lorem ipsum</tspan></text>
    <rect class="st23" x="372.1" y="20.1" width="2.1" height="6.2"/>
    <rect class="st23" x="372.1" y="26.3" width="2.1" height="8.3"/>
    <rect class="st23" x="372.1" y="36.7" width="2.1" height="8.3"/>
    <rect class="st23" x="372.1" y="49.1" width="2.1" height="2.1"/>
    <rect class="st23" x="372.1" y="55.3" width="2.1" height="2.1"/>
    <rect class="st23" x="372.1" y="63.6" width="2.1" height="2.1"/>
    <rect class="st23" x="372.1" y="65.7" width="2.1" height="6.2"/>
    <rect class="st23" x="372.1" y="74" width="2.1" height="10.4"/>
    <rect class="st23" x="372.1" y="84.4" width="2.1" height="4.1"/>
    <rect class="st23" x="374.2" y="20.1" width="2.1" height="2.1"/>
    <rect class="st23" x="374.2" y="32.5" width="2.1" height="2.1"/>
    <rect class="st23" x="374.2" y="38.7" width="2.1" height="2.1"/>
    <rect class="st23" x="374.2" y="42.9" width="2.1" height="2.1"/>
    <rect class="st23" x="374.2" y="47" width="2.1" height="4.1"/>
    <rect class="st23" x="374.2" y="55.3" width="2.1" height="2.1"/>
    <rect class="st23" x="374.2" y="74" width="2.1" height="2.1"/>
    <rect class="st23" x="374.2" y="86.4" width="2.1" height="2.1"/>
    <rect class="st23" x="376.2" y="20.1" width="2.1" height="2.1"/>
    <rect class="st23" x="376.2" y="24.2" width="2.1" height="2.1"/>
    <rect class="st23" x="376.2" y="26.3" width="2.1" height="4.1"/>
    <rect class="st23" x="376.2" y="32.5" width="2.1" height="2.1"/>
    <rect class="st23" x="376.2" y="36.7" width="2.1" height="2.1"/>
    <rect class="st23" x="376.2" y="40.8" width="2.1" height="6.2"/>
    <rect class="st23" x="376.2" y="49.1" width="2.1" height="8.3"/>
    <rect class="st23" x="376.2" y="59.5" width="2.1" height="4.1"/>
    <rect class="st23" x="376.2" y="65.7" width="2.1" height="6.2"/>
    <rect class="st23" x="376.2" y="74" width="2.1" height="2.1"/>
    <rect class="st23" x="376.2" y="78.1" width="2.1" height="6.2"/>
    <rect class="st23" x="376.2" y="86.4" width="2.1" height="2.1"/>
    <rect class="st23" x="378.3" y="20.1" width="2.1" height="2.1"/>
    <rect class="st23" x="378.3" y="24.2" width="2.1" height="2.1"/>
    <rect class="st23" x="378.3" y="26.3" width="2.1" height="4.1"/>
    <rect class="st23" x="378.3" y="32.5" width="2.1" height="2.1"/>
    <rect class="st23" x="378.3" y="36.7" width="2.1" height="4.1"/>
    <rect class="st23" x="378.3" y="42.9" width="2.1" height="2.1"/>
    <rect class="st23" x="378.3" y="47" width="2.1" height="2.1"/>
    <rect class="st23" x="378.3" y="53.2" width="2.1" height="4.1"/>
    <rect class="st23" x="378.3" y="59.5" width="2.1" height="6.2"/>
    <rect class="st23" x="378.3" y="67.8" width="2.1" height="4.1"/>
    <rect class="st23" x="378.3" y="74" width="2.1" height="2.1"/>
    <rect class="st23" x="378.3" y="78.1" width="2.1" height="6.2"/>
    <rect class="st23" x="378.3" y="86.4" width="2.1" height="2.1"/>
    <rect class="st23" x="380.4" y="20.1" width="2.1" height="2.1"/>
    <rect class="st23" x="380.4" y="24.2" width="2.1" height="2.1"/>
    <rect class="st23" x="380.4" y="26.3" width="2.1" height="4.1"/>
    <rect class="st23" x="380.4" y="32.5" width="2.1" height="2.1"/>
    <rect class="st23" x="380.4" y="36.7" width="2.1" height="2.1"/>
    <rect class="st23" x="380.4" y="42.9" width="2.1" height="2.1"/>
    <rect class="st23" x="380.4" y="47" width="2.1" height="2.1"/>
    <rect class="st23" x="380.4" y="53.2" width="2.1" height="4.1"/>
    <rect class="st23" x="380.4" y="65.7" width="2.1" height="6.2"/>
    <rect class="st23" x="380.4" y="74" width="2.1" height="2.1"/>
    <rect class="st23" x="380.4" y="78.1" width="2.1" height="6.2"/>
    <rect class="st23" x="380.4" y="86.4" width="2.1" height="2.1"/>
    <rect class="st23" x="382.5" y="20.1" width="2.1" height="2.1"/>
    <rect class="st23" x="382.5" y="32.5" width="2.1" height="2.1"/>
    <rect class="st23" x="382.5" y="36.7" width="2.1" height="4.1"/>
    <rect class="st23" x="382.5" y="42.9" width="2.1" height="2.1"/>
    <rect class="st23" x="382.5" y="53.2" width="2.1" height="4.1"/>
    <rect class="st23" x="382.5" y="61.5" width="2.1" height="4.1"/>
    <rect class="st23" x="382.5" y="74" width="2.1" height="2.1"/>
    <rect class="st23" x="382.5" y="86.4" width="2.1" height="2.1"/>
    <rect class="st23" x="384.5" y="20.1" width="2.1" height="6.2"/>
    <rect class="st23" x="384.5" y="26.3" width="2.1" height="8.3"/>
    <rect class="st23" x="384.5" y="36.7" width="2.1" height="2.1"/>
    <rect class="st23" x="384.5" y="40.8" width="2.1" height="2.1"/>
    <rect class="st23" x="384.5" y="44.9" width="2.1" height="2.1"/>
    <rect class="st23" x="384.5" y="49.1" width="2.1" height="2.1"/>
    <rect class="st23" x="384.5" y="53.2" width="2.1" height="2.1"/>
    <rect class="st23" x="384.5" y="57.4" width="2.1" height="2.1"/>
    <rect class="st23" x="384.5" y="61.5" width="2.1" height="2.1"/>
    <rect class="st23" x="384.5" y="65.7" width="2.1" height="2.1"/>
    <rect class="st23" x="384.5" y="69.8" width="2.1" height="2.1"/>
    <rect class="st23" x="384.5" y="74" width="2.1" height="10.4"/>
    <rect class="st23" x="384.5" y="84.4" width="2.1" height="4.1"/>
    <rect class="st23" x="386.6" y="42.9" width="2.1" height="2.1"/>
    <rect class="st23" x="386.6" y="47" width="2.1" height="8.3"/>
    <rect class="st23" x="386.6" y="67.8" width="2.1" height="4.1"/>
    <rect class="st23" x="388.7" y="24.2" width="2.1" height="2.1"/>
    <rect class="st23" x="388.7" y="26.3" width="2.1" height="10.4"/>
    <rect class="st23" x="388.7" y="44.9" width="2.1" height="16.6"/>
    <rect class="st23" x="388.7" y="63.6" width="2.1" height="2.1"/>
    <rect class="st23" x="388.7" y="69.8" width="2.1" height="4.1"/>
    <rect class="st23" x="388.7" y="76.1" width="2.1" height="8.3"/>
    <rect class="st23" x="388.7" y="86.4" width="2.1" height="2.1"/>
    <rect class="st23" x="390.8" y="20.1" width="2.1" height="6.2"/>
    <rect class="st23" x="390.8" y="26.3" width="2.1" height="6.2"/>
    <rect class="st23" x="390.8" y="34.6" width="2.1" height="2.1"/>
    <rect class="st23" x="390.8" y="38.7" width="2.1" height="6.2"/>
    <rect class="st23" x="390.8" y="47" width="2.1" height="2.1"/>
    <rect class="st23" x="390.8" y="51.2" width="2.1" height="2.1"/>
    <rect class="st23" x="390.8" y="57.4" width="2.1" height="2.1"/>
    <rect class="st23" x="390.8" y="61.5" width="2.1" height="4.1"/>
    <rect class="st23" x="390.8" y="65.7" width="2.1" height="6.2"/>
    <rect class="st23" x="390.8" y="74" width="2.1" height="6.2"/>
    <rect class="st23" x="390.8" y="82.3" width="2.1" height="2.1"/>
    <rect class="st23" x="390.8" y="84.4" width="2.1" height="4.1"/>
    <rect class="st23" x="392.8" y="20.1" width="2.1" height="2.1"/>
    <rect class="st23" x="392.8" y="24.2" width="2.1" height="2.1"/>
    <rect class="st23" x="392.8" y="28.4" width="2.1" height="8.3"/>
    <rect class="st23" x="392.8" y="38.7" width="2.1" height="4.1"/>
    <rect class="st23" x="392.8" y="44.9" width="2.1" height="10.4"/>
    <rect class="st23" x="392.8" y="57.4" width="2.1" height="2.1"/>
    <rect class="st23" x="392.8" y="61.5" width="2.1" height="4.1"/>
    <rect class="st23" x="392.8" y="65.7" width="2.1" height="8.3"/>
    <rect class="st23" x="392.8" y="76.1" width="2.1" height="2.1"/>
    <rect class="st23" x="394.9" y="22.1" width="2.1" height="4.1"/>
    <rect class="st23" x="394.9" y="30.4" width="2.1" height="2.1"/>
    <rect class="st23" x="394.9" y="40.8" width="2.1" height="2.1"/>
    <rect class="st23" x="394.9" y="49.1" width="2.1" height="2.1"/>
    <rect class="st23" x="394.9" y="53.2" width="2.1" height="2.1"/>
    <rect class="st23" x="394.9" y="59.5" width="2.1" height="2.1"/>
    <rect class="st23" x="394.9" y="63.6" width="2.1" height="2.1"/>
    <rect class="st23" x="394.9" y="67.8" width="2.1" height="2.1"/>
    <rect class="st23" x="394.9" y="78.1" width="2.1" height="6.2"/>
    <rect class="st23" x="394.9" y="84.4" width="2.1" height="2.1"/>
    <rect class="st23" x="397" y="20.1" width="2.1" height="4.1"/>
    <rect class="st23" x="397" y="26.3" width="2.1" height="4.1"/>
    <rect class="st23" x="397" y="32.5" width="2.1" height="2.1"/>
    <rect class="st23" x="397" y="38.7" width="2.1" height="2.1"/>
    <rect class="st23" x="397" y="42.9" width="2.1" height="4.1"/>
    <rect class="st23" x="397" y="49.1" width="2.1" height="6.2"/>
    <rect class="st23" x="397" y="57.4" width="2.1" height="2.1"/>
    <rect class="st23" x="397" y="61.5" width="2.1" height="2.1"/>
    <rect class="st23" x="397" y="69.8" width="2.1" height="4.1"/>
    <rect class="st23" x="397" y="74" width="2.1" height="2.1"/>
    <rect class="st23" x="397" y="84.4" width="2.1" height="2.1"/>
    <rect class="st23" x="399.1" y="30.4" width="2.1" height="2.1"/>
    <rect class="st23" x="399.1" y="36.7" width="2.1" height="8.3"/>
    <rect class="st23" x="399.1" y="47" width="2.1" height="4.1"/>
    <rect class="st23" x="399.1" y="55.3" width="2.1" height="2.1"/>
    <rect class="st23" x="399.1" y="61.5" width="2.1" height="2.1"/>
    <rect class="st23" x="399.1" y="65.7" width="2.1" height="4.1"/>
    <rect class="st23" x="399.1" y="71.9" width="2.1" height="2.1"/>
    <rect class="st23" x="399.1" y="74" width="2.1" height="6.2"/>
    <rect class="st23" x="401.1" y="20.1" width="2.1" height="2.1"/>
    <rect class="st23" x="401.1" y="24.2" width="2.1" height="2.1"/>
    <rect class="st23" x="401.1" y="28.4" width="2.1" height="2.1"/>
    <rect class="st23" x="401.1" y="32.5" width="2.1" height="2.1"/>
    <rect class="st23" x="401.1" y="36.7" width="2.1" height="2.1"/>
    <rect class="st23" x="401.1" y="40.8" width="2.1" height="2.1"/>
    <rect class="st23" x="401.1" y="44.9" width="2.1" height="2.1"/>
    <rect class="st23" x="401.1" y="49.1" width="2.1" height="2.1"/>
    <rect class="st23" x="401.1" y="53.2" width="2.1" height="2.1"/>
    <rect class="st23" x="401.1" y="59.5" width="2.1" height="6.2"/>
    <rect class="st23" x="401.1" y="67.8" width="2.1" height="2.1"/>
    <rect class="st23" x="401.1" y="71.9" width="2.1" height="2.1"/>
    <rect class="st23" x="401.1" y="78.1" width="2.1" height="2.1"/>
    <rect class="st23" x="401.1" y="84.4" width="2.1" height="2.1"/>
    <rect class="st23" x="403.2" y="22.1" width="2.1" height="2.1"/>
    <rect class="st23" x="403.2" y="28.4" width="2.1" height="2.1"/>
    <rect class="st23" x="403.2" y="40.8" width="2.1" height="2.1"/>
    <rect class="st23" x="403.2" y="47" width="2.1" height="8.3"/>
    <rect class="st23" x="403.2" y="57.4" width="2.1" height="2.1"/>
    <rect class="st23" x="403.2" y="61.5" width="2.1" height="4.1"/>
    <rect class="st23" x="403.2" y="74" width="2.1" height="2.1"/>
    <rect class="st23" x="403.2" y="80.2" width="2.1" height="4.1"/>
    <rect class="st23" x="403.2" y="84.4" width="2.1" height="4.1"/>
    <rect class="st23" x="405.3" y="20.1" width="2.1" height="6.2"/>
    <rect class="st23" x="405.3" y="28.4" width="2.1" height="2.1"/>
    <rect class="st23" x="405.3" y="32.5" width="2.1" height="4.1"/>
    <rect class="st23" x="405.3" y="38.7" width="2.1" height="2.1"/>
    <rect class="st23" x="405.3" y="42.9" width="2.1" height="4.1"/>
    <rect class="st23" x="405.3" y="49.1" width="2.1" height="2.1"/>
    <rect class="st23" x="405.3" y="57.4" width="2.1" height="4.1"/>
    <rect class="st23" x="405.3" y="63.6" width="2.1" height="2.1"/>
    <rect class="st23" x="405.3" y="67.8" width="2.1" height="2.1"/>
    <rect class="st23" x="405.3" y="71.9" width="2.1" height="2.1"/>
    <rect class="st23" x="405.3" y="76.1" width="2.1" height="4.1"/>
    <rect class="st23" x="405.3" y="82.3" width="2.1" height="2.1"/>
    <rect class="st23" x="407.4" y="36.7" width="2.1" height="8.3"/>
    <rect class="st23" x="407.4" y="53.2" width="2.1" height="2.1"/>
    <rect class="st23" x="407.4" y="69.8" width="2.1" height="4.1"/>
    <rect class="st23" x="407.4" y="74" width="2.1" height="4.1"/>
    <rect class="st23" x="407.4" y="80.2" width="2.1" height="2.1"/>
    <rect class="st23" x="407.4" y="86.4" width="2.1" height="2.1"/>
    <rect class="st23" x="409.4" y="22.1" width="2.1" height="4.1"/>
    <rect class="st23" x="409.4" y="26.3" width="2.1" height="10.4"/>
    <rect class="st23" x="409.4" y="42.9" width="2.1" height="2.1"/>
    <rect class="st23" x="409.4" y="47" width="2.1" height="2.1"/>
    <rect class="st23" x="409.4" y="57.4" width="2.1" height="2.1"/>
    <rect class="st23" x="409.4" y="61.5" width="2.1" height="2.1"/>
    <rect class="st23" x="409.4" y="67.8" width="2.1" height="2.1"/>
    <rect class="st23" x="409.4" y="71.9" width="2.1" height="2.1"/>
    <rect class="st23" x="409.4" y="76.1" width="2.1" height="2.1"/>
    <rect class="st23" x="409.4" y="80.2" width="2.1" height="4.1"/>
    <rect class="st23" x="411.5" y="20.1" width="2.1" height="2.1"/>
    <rect class="st23" x="411.5" y="26.3" width="2.1" height="2.1"/>
    <rect class="st23" x="411.5" y="34.6" width="2.1" height="6.2"/>
    <rect class="st23" x="411.5" y="42.9" width="2.1" height="4.1"/>
    <rect class="st23" x="411.5" y="49.1" width="2.1" height="2.1"/>
    <rect class="st23" x="411.5" y="55.3" width="2.1" height="2.1"/>
    <rect class="st23" x="411.5" y="59.5" width="2.1" height="2.1"/>
    <rect class="st23" x="411.5" y="71.9" width="2.1" height="2.1"/>
    <rect class="st23" x="411.5" y="78.1" width="2.1" height="2.1"/>
    <rect class="st23" x="411.5" y="86.4" width="2.1" height="2.1"/>
    <rect class="st23" x="413.6" y="20.1" width="2.1" height="6.2"/>
    <rect class="st23" x="413.6" y="26.3" width="2.1" height="4.1"/>
    <rect class="st23" x="413.6" y="32.5" width="2.1" height="2.1"/>
    <rect class="st23" x="413.6" y="38.7" width="2.1" height="6.2"/>
    <rect class="st23" x="413.6" y="47" width="2.1" height="2.1"/>
    <rect class="st23" x="413.6" y="55.3" width="2.1" height="4.1"/>
    <rect class="st23" x="413.6" y="61.5" width="2.1" height="2.1"/>
    <rect class="st23" x="413.6" y="71.9" width="2.1" height="2.1"/>
    <rect class="st23" x="413.6" y="74" width="2.1" height="6.2"/>
    <rect class="st23" x="413.6" y="82.3" width="2.1" height="2.1"/>
    <rect class="st23" x="413.6" y="84.4" width="2.1" height="2.1"/>
    <rect class="st23" x="415.7" y="20.1" width="2.1" height="2.1"/>
    <rect class="st23" x="415.7" y="24.2" width="2.1" height="2.1"/>
    <rect class="st23" x="415.7" y="28.4" width="2.1" height="2.1"/>
    <rect class="st23" x="415.7" y="34.6" width="2.1" height="2.1"/>
    <rect class="st23" x="415.7" y="38.7" width="2.1" height="2.1"/>
    <rect class="st23" x="415.7" y="42.9" width="2.1" height="2.1"/>
    <rect class="st23" x="415.7" y="47" width="2.1" height="2.1"/>
    <rect class="st23" x="415.7" y="51.2" width="2.1" height="2.1"/>
    <rect class="st23" x="415.7" y="55.3" width="2.1" height="6.2"/>
    <rect class="st23" x="415.7" y="63.6" width="2.1" height="2.1"/>
    <rect class="st23" x="415.7" y="65.7" width="2.1" height="4.1"/>
    <rect class="st23" x="415.7" y="74" width="2.1" height="4.1"/>
    <rect class="st23" x="415.7" y="80.2" width="2.1" height="4.1"/>
    <rect class="st23" x="415.7" y="84.4" width="2.1" height="2.1"/>
    <rect class="st23" x="417.7" y="20.1" width="2.1" height="2.1"/>
    <rect class="st23" x="417.7" y="26.3" width="2.1" height="4.1"/>
    <rect class="st23" x="417.7" y="32.5" width="2.1" height="2.1"/>
    <rect class="st23" x="417.7" y="36.7" width="2.1" height="2.1"/>
    <rect class="st23" x="417.7" y="40.8" width="2.1" height="2.1"/>
    <rect class="st23" x="417.7" y="44.9" width="2.1" height="2.1"/>
    <rect class="st23" x="417.7" y="49.1" width="2.1" height="6.2"/>
    <rect class="st23" x="417.7" y="57.4" width="2.1" height="8.3"/>
    <rect class="st23" x="417.7" y="65.7" width="2.1" height="6.2"/>
    <rect class="st23" x="417.7" y="76.1" width="2.1" height="2.1"/>
    <rect class="st23" x="417.7" y="82.3" width="2.1" height="2.1"/>
    <rect class="st23" x="419.8" y="20.1" width="2.1" height="2.1"/>
    <rect class="st23" x="419.8" y="28.4" width="2.1" height="2.1"/>
    <rect class="st23" x="419.8" y="38.7" width="2.1" height="2.1"/>
    <rect class="st23" x="419.8" y="42.9" width="2.1" height="2.1"/>
    <rect class="st23" x="419.8" y="47" width="2.1" height="2.1"/>
    <rect class="st23" x="419.8" y="51.2" width="2.1" height="2.1"/>
    <rect class="st23" x="419.8" y="55.3" width="2.1" height="2.1"/>
    <rect class="st23" x="419.8" y="59.5" width="2.1" height="6.2"/>
    <rect class="st23" x="419.8" y="69.8" width="2.1" height="2.1"/>
    <rect class="st23" x="419.8" y="74" width="2.1" height="4.1"/>
    <rect class="st23" x="419.8" y="80.2" width="2.1" height="4.1"/>
    <rect class="st23" x="421.9" y="32.5" width="2.1" height="2.1"/>
    <rect class="st23" x="421.9" y="36.7" width="2.1" height="2.1"/>
    <rect class="st23" x="421.9" y="40.8" width="2.1" height="2.1"/>
    <rect class="st23" x="421.9" y="51.2" width="2.1" height="2.1"/>
    <rect class="st23" x="421.9" y="57.4" width="2.1" height="2.1"/>
    <rect class="st23" x="421.9" y="69.8" width="2.1" height="4.1"/>
    <rect class="st23" x="421.9" y="74" width="2.1" height="6.2"/>
    <rect class="st23" x="421.9" y="86.4" width="2.1" height="2.1"/>
    <rect class="st23" x="424" y="42.9" width="2.1" height="12.4"/>
    <rect class="st23" x="424" y="57.4" width="2.1" height="2.1"/>
    <rect class="st23" x="424" y="61.5" width="2.1" height="4.1"/>
    <rect class="st23" x="424" y="67.8" width="2.1" height="4.1"/>
    <rect class="st23" x="424" y="78.1" width="2.1" height="4.1"/>
    <rect class="st23" x="424" y="86.4" width="2.1" height="2.1"/>
    <rect class="st23" x="426" y="20.1" width="2.1" height="6.2"/>
    <rect class="st23" x="426" y="26.3" width="2.1" height="8.3"/>
    <rect class="st23" x="426" y="36.7" width="2.1" height="6.2"/>
    <rect class="st23" x="426" y="47" width="2.1" height="6.2"/>
    <rect class="st23" x="426" y="55.3" width="2.1" height="2.1"/>
    <rect class="st23" x="426" y="63.6" width="2.1" height="2.1"/>
    <rect class="st23" x="426" y="67.8" width="2.1" height="4.1"/>
    <rect class="st23" x="426" y="74" width="2.1" height="2.1"/>
    <rect class="st23" x="426" y="78.1" width="2.1" height="2.1"/>
    <rect class="st23" x="426" y="82.3" width="2.1" height="2.1"/>
    <rect class="st23" x="426" y="84.4" width="2.1" height="2.1"/>
    <rect class="st23" x="428.1" y="20.1" width="2.1" height="2.1"/>
    <rect class="st23" x="428.1" y="32.5" width="2.1" height="2.1"/>
    <rect class="st23" x="428.1" y="36.7" width="2.1" height="4.1"/>
    <rect class="st23" x="428.1" y="44.9" width="2.1" height="2.1"/>
    <rect class="st23" x="428.1" y="49.1" width="2.1" height="2.1"/>
    <rect class="st23" x="428.1" y="53.2" width="2.1" height="10.4"/>
    <rect class="st23" x="428.1" y="69.8" width="2.1" height="2.1"/>
    <rect class="st23" x="428.1" y="78.1" width="2.1" height="2.1"/>
    <rect class="st23" x="428.1" y="82.3" width="2.1" height="2.1"/>
    <rect class="st23" x="428.1" y="86.4" width="2.1" height="2.1"/>
    <rect class="st23" x="430.2" y="20.1" width="2.1" height="2.1"/>
    <rect class="st23" x="430.2" y="24.2" width="2.1" height="2.1"/>
    <rect class="st23" x="430.2" y="26.3" width="2.1" height="4.1"/>
    <rect class="st23" x="430.2" y="32.5" width="2.1" height="2.1"/>
    <rect class="st23" x="430.2" y="36.7" width="2.1" height="2.1"/>
    <rect class="st23" x="430.2" y="40.8" width="2.1" height="6.2"/>
    <rect class="st23" x="430.2" y="49.1" width="2.1" height="6.2"/>
    <rect class="st23" x="430.2" y="57.4" width="2.1" height="6.2"/>
    <rect class="st23" x="430.2" y="69.8" width="2.1" height="4.1"/>
    <rect class="st23" x="430.2" y="74" width="2.1" height="8.3"/>
    <rect class="st23" x="430.2" y="84.4" width="2.1" height="2.1"/>
    <rect class="st23" x="432.2" y="20.1" width="2.1" height="2.1"/>
    <rect class="st23" x="432.2" y="24.2" width="2.1" height="2.1"/>
    <rect class="st23" x="432.2" y="26.3" width="2.1" height="4.1"/>
    <rect class="st23" x="432.2" y="32.5" width="2.1" height="2.1"/>
    <rect class="st23" x="432.2" y="36.7" width="2.1" height="4.1"/>
    <rect class="st23" x="432.2" y="42.9" width="2.1" height="10.4"/>
    <rect class="st23" x="432.2" y="55.3" width="2.1" height="2.1"/>
    <rect class="st23" x="432.2" y="59.5" width="2.1" height="6.2"/>
    <rect class="st23" x="432.2" y="65.7" width="2.1" height="4.1"/>
    <rect class="st23" x="432.2" y="76.1" width="2.1" height="8.3"/>
    <rect class="st23" x="432.2" y="84.4" width="2.1" height="4.1"/>
    <rect class="st23" x="434.3" y="20.1" width="2.1" height="2.1"/>
    <rect class="st23" x="434.3" y="24.2" width="2.1" height="2.1"/>
    <rect class="st23" x="434.3" y="26.3" width="2.1" height="4.1"/>
    <rect class="st23" x="434.3" y="32.5" width="2.1" height="2.1"/>
    <rect class="st23" x="434.3" y="36.7" width="2.1" height="8.3"/>
    <rect class="st23" x="434.3" y="51.2" width="2.1" height="2.1"/>
    <rect class="st23" x="434.3" y="55.3" width="2.1" height="6.2"/>
    <rect class="st23" x="434.3" y="65.7" width="2.1" height="4.1"/>
    <rect class="st23" x="434.3" y="71.9" width="2.1" height="2.1"/>
    <rect class="st23" x="434.3" y="74" width="2.1" height="4.1"/>
    <rect class="st23" x="434.3" y="82.3" width="2.1" height="2.1"/>
    <rect class="st23" x="434.3" y="84.4" width="2.1" height="2.1"/>
    <rect class="st23" x="436.4" y="20.1" width="2.1" height="2.1"/>
    <rect class="st23" x="436.4" y="32.5" width="2.1" height="2.1"/>
    <rect class="st23" x="436.4" y="40.8" width="2.1" height="4.1"/>
    <rect class="st23" x="436.4" y="47" width="2.1" height="4.1"/>
    <rect class="st23" x="436.4" y="57.4" width="2.1" height="6.2"/>
    <rect class="st23" x="436.4" y="65.7" width="2.1" height="4.1"/>
    <rect class="st23" x="436.4" y="76.1" width="2.1" height="6.2"/>
    <rect class="st23" x="436.4" y="86.4" width="2.1" height="2.1"/>
    <rect class="st23" x="438.5" y="20.1" width="2.1" height="6.2"/>
    <rect class="st23" x="438.5" y="26.3" width="2.1" height="8.3"/>
    <rect class="st23" x="438.5" y="38.7" width="2.1" height="2.1"/>
    <rect class="st23" x="438.5" y="42.9" width="2.1" height="2.1"/>
    <rect class="st23" x="438.5" y="47" width="2.1" height="2.1"/>
    <rect class="st23" x="438.5" y="53.2" width="2.1" height="4.1"/>
    <rect class="st23" x="438.5" y="59.5" width="2.1" height="6.2"/>
    <rect class="st23" x="438.5" y="71.9" width="2.1" height="2.1"/>
    <rect class="st23" x="438.5" y="76.1" width="2.1" height="2.1"/>
    <rect class="st23" x="438.5" y="80.2" width="2.1" height="2.1"/>
    <text class="st9" transform="translate(2237.1 -786.1)"><tspan x="0" y="0">Lorem ipsum</tspan></text>
    <rect class="st23" x="1890.3" y="-1053.1" width="2.6" height="7.9"/>
    <rect class="st23" x="1890.3" y="-1045.2" width="2.6" height="10.5"/>
    <rect class="st23" x="1890.3" y="-1032.1" width="2.6" height="10.5"/>
    <rect class="st23" x="1890.3" y="-1016.4" width="2.6" height="2.6"/>
    <rect class="st23" x="1890.3" y="-1008.5" width="2.6" height="2.6"/>
    <rect class="st23" x="1890.3" y="-998.1" width="2.6" height="2.6"/>
    <rect class="st23" x="1890.3" y="-995.4" width="2.6" height="7.9"/>
    <rect class="st23" x="1890.3" y="-985" width="2.6" height="13.1"/>
    <rect class="st23" x="1890.3" y="-971.9" width="2.6" height="5.2"/>
    <rect class="st23" x="1892.9" y="-1053.1" width="2.6" height="2.6"/>
    <rect class="st23" x="1892.9" y="-1037.4" width="2.6" height="2.6"/>
    <rect class="st23" x="1892.9" y="-1029.5" width="2.6" height="2.6"/>
    <rect class="st23" x="1892.9" y="-1024.3" width="2.6" height="2.6"/>
    <rect class="st23" x="1892.9" y="-1019" width="2.6" height="5.2"/>
    <rect class="st23" x="1892.9" y="-1008.5" width="2.6" height="2.6"/>
    <rect class="st23" x="1892.9" y="-985" width="2.6" height="2.6"/>
    <rect class="st23" x="1892.9" y="-969.2" width="2.6" height="2.6"/>
    <rect class="st23" x="1895.5" y="-1053.1" width="2.6" height="2.6"/>
    <rect class="st23" x="1895.5" y="-1047.9" width="2.6" height="2.6"/>
    <rect class="st23" x="1895.5" y="-1045.2" width="2.6" height="5.2"/>
    <rect class="st23" x="1895.5" y="-1037.4" width="2.6" height="2.6"/>
    <rect class="st23" x="1895.5" y="-1032.1" width="2.6" height="2.6"/>
    <rect class="st23" x="1895.5" y="-1026.9" width="2.6" height="7.9"/>
    <rect class="st23" x="1895.5" y="-1016.4" width="2.6" height="10.5"/>
    <rect class="st23" x="1895.5" y="-1003.3" width="2.6" height="5.2"/>
    <rect class="st23" x="1895.5" y="-995.4" width="2.6" height="7.9"/>
    <rect class="st23" x="1895.5" y="-985" width="2.6" height="2.6"/>
    <rect class="st23" x="1895.5" y="-979.7" width="2.6" height="7.9"/>
    <rect class="st23" x="1895.5" y="-969.2" width="2.6" height="2.6"/>
    <rect class="st23" x="1898.1" y="-1053.1" width="2.6" height="2.6"/>
    <rect class="st23" x="1898.1" y="-1047.9" width="2.6" height="2.6"/>
    <rect class="st23" x="1898.1" y="-1045.2" width="2.6" height="5.2"/>
    <rect class="st23" x="1898.1" y="-1037.4" width="2.6" height="2.6"/>
    <rect class="st23" x="1898.1" y="-1032.1" width="2.6" height="5.2"/>
    <rect class="st23" x="1898.1" y="-1024.3" width="2.6" height="2.6"/>
    <rect class="st23" x="1898.1" y="-1019" width="2.6" height="2.6"/>
    <rect class="st23" x="1898.1" y="-1011.2" width="2.6" height="5.2"/>
    <rect class="st23" x="1898.1" y="-1003.3" width="2.6" height="7.9"/>
    <rect class="st23" x="1898.1" y="-992.8" width="2.6" height="5.2"/>
    <rect class="st23" x="1898.1" y="-985" width="2.6" height="2.6"/>
    <rect class="st23" x="1898.1" y="-979.7" width="2.6" height="7.9"/>
    <rect class="st23" x="1898.1" y="-969.2" width="2.6" height="2.6"/>
    <rect class="st23" x="1900.7" y="-1053.1" width="2.6" height="2.6"/>
    <rect class="st23" x="1900.7" y="-1047.9" width="2.6" height="2.6"/>
    <rect class="st23" x="1900.7" y="-1045.2" width="2.6" height="5.2"/>
    <rect class="st23" x="1900.7" y="-1037.4" width="2.6" height="2.6"/>
    <rect class="st23" x="1900.7" y="-1032.1" width="2.6" height="2.6"/>
    <rect class="st23" x="1900.7" y="-1024.3" width="2.6" height="2.6"/>
    <rect class="st23" x="1900.7" y="-1019" width="2.6" height="2.6"/>
    <rect class="st23" x="1900.7" y="-1011.2" width="2.6" height="5.2"/>
    <rect class="st23" x="1900.7" y="-995.4" width="2.6" height="7.9"/>
    <rect class="st23" x="1900.7" y="-985" width="2.6" height="2.6"/>
    <rect class="st23" x="1900.7" y="-979.7" width="2.6" height="7.9"/>
    <rect class="st23" x="1900.7" y="-969.2" width="2.6" height="2.6"/>
    <rect class="st23" x="1903.3" y="-1053.1" width="2.6" height="2.6"/>
    <rect class="st23" x="1903.3" y="-1037.4" width="2.6" height="2.6"/>
    <rect class="st23" x="1903.3" y="-1032.1" width="2.6" height="5.2"/>
    <rect class="st23" x="1903.3" y="-1024.3" width="2.6" height="2.6"/>
    <rect class="st23" x="1903.3" y="-1011.2" width="2.6" height="5.2"/>
    <rect class="st23" x="1903.3" y="-1000.7" width="2.6" height="5.2"/>
    <rect class="st23" x="1903.3" y="-985" width="2.6" height="2.6"/>
    <rect class="st23" x="1903.3" y="-969.2" width="2.6" height="2.6"/>
    <rect class="st23" x="1905.9" y="-1053.1" width="2.6" height="7.9"/>
    <rect class="st23" x="1905.9" y="-1045.2" width="2.6" height="10.5"/>
    <rect class="st23" x="1905.9" y="-1032.1" width="2.6" height="2.6"/>
    <rect class="st23" x="1905.9" y="-1026.9" width="2.6" height="2.6"/>
    <rect class="st23" x="1905.9" y="-1021.7" width="2.6" height="2.6"/>
    <rect class="st23" x="1905.9" y="-1016.4" width="2.6" height="2.6"/>
    <rect class="st23" x="1905.9" y="-1011.2" width="2.6" height="2.6"/>
    <rect class="st23" x="1905.9" y="-1005.9" width="2.6" height="2.6"/>
    <rect class="st23" x="1905.9" y="-1000.7" width="2.6" height="2.6"/>
    <rect class="st23" x="1905.9" y="-995.4" width="2.6" height="2.6"/>
    <rect class="st23" x="1905.9" y="-990.2" width="2.6" height="2.6"/>
    <rect class="st23" x="1905.9" y="-985" width="2.6" height="13.1"/>
    <rect class="st23" x="1905.9" y="-971.9" width="2.6" height="5.2"/>
    <rect class="st23" x="1908.5" y="-1024.3" width="2.6" height="2.6"/>
    <rect class="st23" x="1908.5" y="-1019" width="2.6" height="10.5"/>
    <rect class="st23" x="1908.5" y="-992.8" width="2.6" height="5.2"/>
    <rect class="st23" x="1911" y="-1047.9" width="2.6" height="2.6"/>
    <rect class="st23" x="1911" y="-1045.2" width="2.6" height="13.1"/>
    <rect class="st23" x="1911" y="-1021.7" width="2.6" height="21"/>
    <rect class="st23" x="1911" y="-998.1" width="2.6" height="2.6"/>
    <rect class="st23" x="1911" y="-990.2" width="2.6" height="5.2"/>
    <rect class="st23" x="1911" y="-982.3" width="2.6" height="10.5"/>
    <rect class="st23" x="1911" y="-969.2" width="2.6" height="2.6"/>
    <rect class="st23" x="1913.6" y="-1053.1" width="2.6" height="7.9"/>
    <rect class="st23" x="1913.6" y="-1045.2" width="2.6" height="7.9"/>
    <rect class="st23" x="1913.6" y="-1034.8" width="2.6" height="2.6"/>
    <rect class="st23" x="1913.6" y="-1029.5" width="2.6" height="7.9"/>
    <rect class="st23" x="1913.6" y="-1019" width="2.6" height="2.6"/>
    <rect class="st23" x="1913.6" y="-1013.8" width="2.6" height="2.6"/>
    <rect class="st23" x="1913.6" y="-1005.9" width="2.6" height="2.6"/>
    <rect class="st23" x="1913.6" y="-1000.7" width="2.6" height="5.2"/>
    <rect class="st23" x="1913.6" y="-995.4" width="2.6" height="7.9"/>
    <rect class="st23" x="1913.6" y="-985" width="2.6" height="7.9"/>
    <rect class="st23" x="1913.6" y="-974.5" width="2.6" height="2.6"/>
    <rect class="st23" x="1913.6" y="-971.9" width="2.6" height="5.2"/>
    <rect class="st23" x="1916.2" y="-1053.1" width="2.6" height="2.6"/>
    <rect class="st23" x="1916.2" y="-1047.9" width="2.6" height="2.6"/>
    <rect class="st23" x="1916.2" y="-1042.6" width="2.6" height="10.5"/>
    <rect class="st23" x="1916.2" y="-1029.5" width="2.6" height="5.2"/>
    <rect class="st23" x="1916.2" y="-1021.7" width="2.6" height="13.1"/>
    <rect class="st23" x="1916.2" y="-1005.9" width="2.6" height="2.6"/>
    <rect class="st23" x="1916.2" y="-1000.7" width="2.6" height="5.2"/>
    <rect class="st23" x="1916.2" y="-995.4" width="2.6" height="10.5"/>
    <rect class="st23" x="1916.2" y="-982.3" width="2.6" height="2.6"/>
    <rect class="st23" x="1918.8" y="-1050.5" width="2.6" height="5.2"/>
    <rect class="st23" x="1918.8" y="-1040" width="2.6" height="2.6"/>
    <rect class="st23" x="1918.8" y="-1026.9" width="2.6" height="2.6"/>
    <rect class="st23" x="1918.8" y="-1016.4" width="2.6" height="2.6"/>
    <rect class="st23" x="1918.8" y="-1011.2" width="2.6" height="2.6"/>
    <rect class="st23" x="1918.8" y="-1003.3" width="2.6" height="2.6"/>
    <rect class="st23" x="1918.8" y="-998.1" width="2.6" height="2.6"/>
    <rect class="st23" x="1918.8" y="-992.8" width="2.6" height="2.6"/>
    <rect class="st23" x="1918.8" y="-979.7" width="2.6" height="7.9"/>
    <rect class="st23" x="1918.8" y="-971.9" width="2.6" height="2.6"/>
    <rect class="st23" x="1921.4" y="-1053.1" width="2.6" height="5.2"/>
    <rect class="st23" x="1921.4" y="-1045.2" width="2.6" height="5.2"/>
    <rect class="st23" x="1921.4" y="-1037.4" width="2.6" height="2.6"/>
    <rect class="st23" x="1921.4" y="-1029.5" width="2.6" height="2.6"/>
    <rect class="st23" x="1921.4" y="-1024.3" width="2.6" height="5.2"/>
    <rect class="st23" x="1921.4" y="-1016.4" width="2.6" height="7.9"/>
    <rect class="st23" x="1921.4" y="-1005.9" width="2.6" height="2.6"/>
    <rect class="st23" x="1921.4" y="-1000.7" width="2.6" height="2.6"/>
    <rect class="st23" x="1921.4" y="-990.2" width="2.6" height="5.2"/>
    <rect class="st23" x="1921.4" y="-985" width="2.6" height="2.6"/>
    <rect class="st23" x="1921.4" y="-971.9" width="2.6" height="2.6"/>
    <rect class="st23" x="1924" y="-1040" width="2.6" height="2.6"/>
    <rect class="st23" x="1924" y="-1032.1" width="2.6" height="10.5"/>
    <rect class="st23" x="1924" y="-1019" width="2.6" height="5.2"/>
    <rect class="st23" x="1924" y="-1008.5" width="2.6" height="2.6"/>
    <rect class="st23" x="1924" y="-1000.7" width="2.6" height="2.6"/>
    <rect class="st23" x="1924" y="-995.4" width="2.6" height="5.2"/>
    <rect class="st23" x="1924" y="-987.6" width="2.6" height="2.6"/>
    <rect class="st23" x="1924" y="-985" width="2.6" height="7.9"/>
    <rect class="st23" x="1926.6" y="-1053.1" width="2.6" height="2.6"/>
    <rect class="st23" x="1926.6" y="-1047.9" width="2.6" height="2.6"/>
    <rect class="st23" x="1926.6" y="-1042.6" width="2.6" height="2.6"/>
    <rect class="st23" x="1926.6" y="-1037.4" width="2.6" height="2.6"/>
    <rect class="st23" x="1926.6" y="-1032.1" width="2.6" height="2.6"/>
    <rect class="st23" x="1926.6" y="-1026.9" width="2.6" height="2.6"/>
    <rect class="st23" x="1926.6" y="-1021.7" width="2.6" height="2.6"/>
    <rect class="st23" x="1926.6" y="-1016.4" width="2.6" height="2.6"/>
    <rect class="st23" x="1926.6" y="-1011.2" width="2.6" height="2.6"/>
    <rect class="st23" x="1926.6" y="-1003.3" width="2.6" height="7.9"/>
    <rect class="st23" x="1926.6" y="-992.8" width="2.6" height="2.6"/>
    <rect class="st23" x="1926.6" y="-987.6" width="2.6" height="2.6"/>
    <rect class="st23" x="1926.6" y="-979.7" width="2.6" height="2.6"/>
    <rect class="st23" x="1926.6" y="-971.9" width="2.6" height="2.6"/>
    <rect class="st23" x="1929.2" y="-1050.5" width="2.6" height="2.6"/>
    <rect class="st23" x="1929.2" y="-1042.6" width="2.6" height="2.6"/>
    <rect class="st23" x="1929.2" y="-1026.9" width="2.6" height="2.6"/>
    <rect class="st23" x="1929.2" y="-1019" width="2.6" height="10.5"/>
    <rect class="st23" x="1929.2" y="-1005.9" width="2.6" height="2.6"/>
    <rect class="st23" x="1929.2" y="-1000.7" width="2.6" height="5.2"/>
    <rect class="st23" x="1929.2" y="-985" width="2.6" height="2.6"/>
    <rect class="st23" x="1929.2" y="-977.1" width="2.6" height="5.2"/>
    <rect class="st23" x="1929.2" y="-971.9" width="2.6" height="5.2"/>
    <rect class="st23" x="1931.8" y="-1053.1" width="2.6" height="7.9"/>
    <rect class="st23" x="1931.8" y="-1042.6" width="2.6" height="2.6"/>
    <rect class="st23" x="1931.8" y="-1037.4" width="2.6" height="5.2"/>
    <rect class="st23" x="1931.8" y="-1029.5" width="2.6" height="2.6"/>
    <rect class="st23" x="1931.8" y="-1024.3" width="2.6" height="5.2"/>
    <rect class="st23" x="1931.8" y="-1016.4" width="2.6" height="2.6"/>
    <rect class="st23" x="1931.8" y="-1005.9" width="2.6" height="5.2"/>
    <rect class="st23" x="1931.8" y="-998.1" width="2.6" height="2.6"/>
    <rect class="st23" x="1931.8" y="-992.8" width="2.6" height="2.6"/>
    <rect class="st23" x="1931.8" y="-987.6" width="2.6" height="2.6"/>
    <rect class="st23" x="1931.8" y="-982.3" width="2.6" height="5.2"/>
    <rect class="st23" x="1931.8" y="-974.5" width="2.6" height="2.6"/>
    <rect class="st23" x="1934.3" y="-1032.1" width="2.6" height="10.5"/>
    <rect class="st23" x="1934.3" y="-1011.2" width="2.6" height="2.6"/>
    <rect class="st23" x="1934.3" y="-990.2" width="2.6" height="5.2"/>
    <rect class="st23" x="1934.3" y="-985" width="2.6" height="5.2"/>
    <rect class="st23" x="1934.3" y="-977.1" width="2.6" height="2.6"/>
    <rect class="st23" x="1934.3" y="-969.2" width="2.6" height="2.6"/>
    <rect class="st23" x="1936.9" y="-1050.5" width="2.6" height="5.2"/>
    <rect class="st23" x="1936.9" y="-1045.2" width="2.6" height="13.1"/>
    <rect class="st23" x="1936.9" y="-1024.3" width="2.6" height="2.6"/>
    <rect class="st23" x="1936.9" y="-1019" width="2.6" height="2.6"/>
    <rect class="st23" x="1936.9" y="-1005.9" width="2.6" height="2.6"/>
    <rect class="st23" x="1936.9" y="-1000.7" width="2.6" height="2.6"/>
    <rect class="st23" x="1936.9" y="-992.8" width="2.6" height="2.6"/>
    <rect class="st23" x="1936.9" y="-987.6" width="2.6" height="2.6"/>
    <rect class="st23" x="1936.9" y="-982.3" width="2.6" height="2.6"/>
    <rect class="st23" x="1936.9" y="-977.1" width="2.6" height="5.2"/>
    <rect class="st23" x="1939.5" y="-1053.1" width="2.6" height="2.6"/>
    <rect class="st23" x="1939.5" y="-1045.2" width="2.6" height="2.6"/>
    <rect class="st23" x="1939.5" y="-1034.8" width="2.6" height="7.9"/>
    <rect class="st23" x="1939.5" y="-1024.3" width="2.6" height="5.2"/>
    <rect class="st23" x="1939.5" y="-1016.4" width="2.6" height="2.6"/>
    <rect class="st23" x="1939.5" y="-1008.5" width="2.6" height="2.6"/>
    <rect class="st23" x="1939.5" y="-1003.3" width="2.6" height="2.6"/>
    <rect class="st23" x="1939.5" y="-987.6" width="2.6" height="2.6"/>
    <rect class="st23" x="1939.5" y="-979.7" width="2.6" height="2.6"/>
    <rect class="st23" x="1939.5" y="-969.2" width="2.6" height="2.6"/>
    <rect class="st23" x="1942.1" y="-1053.1" width="2.6" height="7.9"/>
    <rect class="st23" x="1942.1" y="-1045.2" width="2.6" height="5.2"/>
    <rect class="st23" x="1942.1" y="-1037.4" width="2.6" height="2.6"/>
    <rect class="st23" x="1942.1" y="-1029.5" width="2.6" height="7.9"/>
    <rect class="st23" x="1942.1" y="-1019" width="2.6" height="2.6"/>
    <rect class="st23" x="1942.1" y="-1008.5" width="2.6" height="5.2"/>
    <rect class="st23" x="1942.1" y="-1000.7" width="2.6" height="2.6"/>
    <rect class="st23" x="1942.1" y="-987.6" width="2.6" height="2.6"/>
    <rect class="st23" x="1942.1" y="-985" width="2.6" height="7.9"/>
    <rect class="st23" x="1942.1" y="-974.5" width="2.6" height="2.6"/>
    <rect class="st23" x="1942.1" y="-971.9" width="2.6" height="2.6"/>
    <rect class="st23" x="1944.7" y="-1053.1" width="2.6" height="2.6"/>
    <rect class="st23" x="1944.7" y="-1047.9" width="2.6" height="2.6"/>
    <rect class="st23" x="1944.7" y="-1042.6" width="2.6" height="2.6"/>
    <rect class="st23" x="1944.7" y="-1034.8" width="2.6" height="2.6"/>
    <rect class="st23" x="1944.7" y="-1029.5" width="2.6" height="2.6"/>
    <rect class="st23" x="1944.7" y="-1024.3" width="2.6" height="2.6"/>
    <rect class="st23" x="1944.7" y="-1019" width="2.6" height="2.6"/>
    <rect class="st23" x="1944.7" y="-1013.8" width="2.6" height="2.6"/>
    <rect class="st23" x="1944.7" y="-1008.5" width="2.6" height="7.9"/>
    <rect class="st23" x="1944.7" y="-998.1" width="2.6" height="2.6"/>
    <rect class="st23" x="1944.7" y="-995.4" width="2.6" height="5.2"/>
    <rect class="st23" x="1944.7" y="-985" width="2.6" height="5.2"/>
    <rect class="st23" x="1944.7" y="-977.1" width="2.6" height="5.2"/>
    <rect class="st23" x="1944.7" y="-971.9" width="2.6" height="2.6"/>
    <rect class="st23" x="1947.3" y="-1053.1" width="2.6" height="2.6"/>
    <rect class="st23" x="1947.3" y="-1045.2" width="2.6" height="5.2"/>
    <rect class="st23" x="1947.3" y="-1037.4" width="2.6" height="2.6"/>
    <rect class="st23" x="1947.3" y="-1032.1" width="2.6" height="2.6"/>
    <rect class="st23" x="1947.3" y="-1026.9" width="2.6" height="2.6"/>
    <rect class="st23" x="1947.3" y="-1021.7" width="2.6" height="2.6"/>
    <rect class="st23" x="1947.3" y="-1016.4" width="2.6" height="7.9"/>
    <rect class="st23" x="1947.3" y="-1005.9" width="2.6" height="10.5"/>
    <rect class="st23" x="1947.3" y="-995.4" width="2.6" height="7.9"/>
    <rect class="st23" x="1947.3" y="-982.3" width="2.6" height="2.6"/>
    <rect class="st23" x="1947.3" y="-974.5" width="2.6" height="2.6"/>
    <rect class="st23" x="1949.9" y="-1053.1" width="2.6" height="2.6"/>
    <rect class="st23" x="1949.9" y="-1042.6" width="2.6" height="2.6"/>
    <rect class="st23" x="1949.9" y="-1029.5" width="2.6" height="2.6"/>
    <rect class="st23" x="1949.9" y="-1024.3" width="2.6" height="2.6"/>
    <rect class="st23" x="1949.9" y="-1019" width="2.6" height="2.6"/>
    <rect class="st23" x="1949.9" y="-1013.8" width="2.6" height="2.6"/>
    <rect class="st23" x="1949.9" y="-1008.5" width="2.6" height="2.6"/>
    <rect class="st23" x="1949.9" y="-1003.3" width="2.6" height="7.9"/>
    <rect class="st23" x="1949.9" y="-990.2" width="2.6" height="2.6"/>
    <rect class="st23" x="1949.9" y="-985" width="2.6" height="5.2"/>
    <rect class="st23" x="1949.9" y="-977.1" width="2.6" height="5.2"/>
    <rect class="st23" x="1952.5" y="-1037.4" width="2.6" height="2.6"/>
    <rect class="st23" x="1952.5" y="-1032.1" width="2.6" height="2.6"/>
    <rect class="st23" x="1952.5" y="-1026.9" width="2.6" height="2.6"/>
    <rect class="st23" x="1952.5" y="-1013.8" width="2.6" height="2.6"/>
    <rect class="st23" x="1952.5" y="-1005.9" width="2.6" height="2.6"/>
    <rect class="st23" x="1952.5" y="-990.2" width="2.6" height="5.2"/>
    <rect class="st23" x="1952.5" y="-985" width="2.6" height="7.9"/>
    <rect class="st23" x="1952.5" y="-969.2" width="2.6" height="2.6"/>
    <rect class="st23" x="1955.1" y="-1024.3" width="2.6" height="15.7"/>
    <rect class="st23" x="1955.1" y="-1005.9" width="2.6" height="2.6"/>
    <rect class="st23" x="1955.1" y="-1000.7" width="2.6" height="5.2"/>
    <rect class="st23" x="1955.1" y="-992.8" width="2.6" height="5.2"/>
    <rect class="st23" x="1955.1" y="-979.7" width="2.6" height="5.2"/>
    <rect class="st23" x="1955.1" y="-969.2" width="2.6" height="2.6"/>
    <rect class="st23" x="1957.6" y="-1053.1" width="2.6" height="7.9"/>
    <rect class="st23" x="1957.6" y="-1045.2" width="2.6" height="10.5"/>
    <rect class="st23" x="1957.6" y="-1032.1" width="2.6" height="7.9"/>
    <rect class="st23" x="1957.6" y="-1019" width="2.6" height="7.9"/>
    <rect class="st23" x="1957.6" y="-1008.5" width="2.6" height="2.6"/>
    <rect class="st23" x="1957.6" y="-998.1" width="2.6" height="2.6"/>
    <rect class="st23" x="1957.6" y="-992.8" width="2.6" height="5.2"/>
    <rect class="st23" x="1957.6" y="-985" width="2.6" height="2.6"/>
    <rect class="st23" x="1957.6" y="-979.7" width="2.6" height="2.6"/>
    <rect class="st23" x="1957.6" y="-974.5" width="2.6" height="2.6"/>
    <rect class="st23" x="1957.6" y="-971.9" width="2.6" height="2.6"/>
    <rect class="st23" x="1960.2" y="-1053.1" width="2.6" height="2.6"/>
    <rect class="st23" x="1960.2" y="-1037.4" width="2.6" height="2.6"/>
    <rect class="st23" x="1960.2" y="-1032.1" width="2.6" height="5.2"/>
    <rect class="st23" x="1960.2" y="-1021.7" width="2.6" height="2.6"/>
    <rect class="st23" x="1960.2" y="-1016.4" width="2.6" height="2.6"/>
    <rect class="st23" x="1960.2" y="-1011.2" width="2.6" height="13.1"/>
    <rect class="st23" x="1960.2" y="-990.2" width="2.6" height="2.6"/>
    <rect class="st23" x="1960.2" y="-979.7" width="2.6" height="2.6"/>
    <rect class="st23" x="1960.2" y="-974.5" width="2.6" height="2.6"/>
    <rect class="st23" x="1960.2" y="-969.2" width="2.6" height="2.6"/>
    <rect class="st23" x="1962.8" y="-1053.1" width="2.6" height="2.6"/>
    <rect class="st23" x="1962.8" y="-1047.9" width="2.6" height="2.6"/>
    <rect class="st23" x="1962.8" y="-1045.2" width="2.6" height="5.2"/>
    <rect class="st23" x="1962.8" y="-1037.4" width="2.6" height="2.6"/>
    <rect class="st23" x="1962.8" y="-1032.1" width="2.6" height="2.6"/>
    <rect class="st23" x="1962.8" y="-1026.9" width="2.6" height="7.9"/>
    <rect class="st23" x="1962.8" y="-1016.4" width="2.6" height="7.9"/>
    <rect class="st23" x="1962.8" y="-1005.9" width="2.6" height="7.9"/>
    <rect class="st23" x="1962.8" y="-990.2" width="2.6" height="5.2"/>
    <rect class="st23" x="1962.8" y="-985" width="2.6" height="10.5"/>
    <rect class="st23" x="1962.8" y="-971.9" width="2.6" height="2.6"/>
    <rect class="st23" x="1965.4" y="-1053.1" width="2.6" height="2.6"/>
    <rect class="st23" x="1965.4" y="-1047.9" width="2.6" height="2.6"/>
    <rect class="st23" x="1965.4" y="-1045.2" width="2.6" height="5.2"/>
    <rect class="st23" x="1965.4" y="-1037.4" width="2.6" height="2.6"/>
    <rect class="st23" x="1965.4" y="-1032.1" width="2.6" height="5.2"/>
    <rect class="st23" x="1965.4" y="-1024.3" width="2.6" height="13.1"/>
    <rect class="st23" x="1965.4" y="-1008.5" width="2.6" height="2.6"/>
    <rect class="st23" x="1965.4" y="-1003.3" width="2.6" height="7.9"/>
    <rect class="st23" x="1965.4" y="-995.4" width="2.6" height="5.2"/>
    <rect class="st23" x="1965.4" y="-982.3" width="2.6" height="10.5"/>
    <rect class="st23" x="1965.4" y="-971.9" width="2.6" height="5.2"/>
    <rect class="st23" x="1968" y="-1053.1" width="2.6" height="2.6"/>
    <rect class="st23" x="1968" y="-1047.9" width="2.6" height="2.6"/>
    <rect class="st23" x="1968" y="-1045.2" width="2.6" height="5.2"/>
    <rect class="st23" x="1968" y="-1037.4" width="2.6" height="2.6"/>
    <rect class="st23" x="1968" y="-1032.1" width="2.6" height="10.5"/>
    <rect class="st23" x="1968" y="-1013.8" width="2.6" height="2.6"/>
    <rect class="st23" x="1968" y="-1008.5" width="2.6" height="7.9"/>
    <rect class="st23" x="1968" y="-995.4" width="2.6" height="5.2"/>
    <rect class="st23" x="1968" y="-987.6" width="2.6" height="2.6"/>
    <rect class="st23" x="1968" y="-985" width="2.6" height="5.2"/>
    <rect class="st23" x="1968" y="-974.5" width="2.6" height="2.6"/>
    <rect class="st23" x="1968" y="-971.9" width="2.6" height="2.6"/>
    <rect class="st23" x="1970.6" y="-1053.1" width="2.6" height="2.6"/>
    <rect class="st23" x="1970.6" y="-1037.4" width="2.6" height="2.6"/>
    <rect class="st23" x="1970.6" y="-1026.9" width="2.6" height="5.2"/>
    <rect class="st23" x="1970.6" y="-1019" width="2.6" height="5.2"/>
    <rect class="st23" x="1970.6" y="-1005.9" width="2.6" height="7.9"/>
    <rect class="st23" x="1970.6" y="-995.4" width="2.6" height="5.2"/>
    <rect class="st23" x="1970.6" y="-982.3" width="2.6" height="7.9"/>
    <rect class="st23" x="1970.6" y="-969.2" width="2.6" height="2.6"/>
    <rect class="st23" x="1973.2" y="-1053.1" width="2.6" height="7.9"/>
    <rect class="st23" x="1973.2" y="-1045.2" width="2.6" height="10.5"/>
    <rect class="st23" x="1973.2" y="-1029.5" width="2.6" height="2.6"/>
    <rect class="st23" x="1973.2" y="-1024.3" width="2.6" height="2.6"/>
    <rect class="st23" x="1973.2" y="-1019" width="2.6" height="2.6"/>
    <rect class="st23" x="1973.2" y="-1011.2" width="2.6" height="5.2"/>
    <rect class="st23" x="1973.2" y="-1003.3" width="2.6" height="7.9"/>
    <rect class="st23" x="1973.2" y="-987.6" width="2.6" height="2.6"/>
    <rect class="st23" x="1973.2" y="-982.3" width="2.6" height="2.6"/>
    <rect class="st23" x="1973.2" y="-977.1" width="2.6" height="2.6"/>
    <text class="st9" transform="translate(2333.6 -1078.3)"><tspan x="0" y="0">Lorem ipsum</tspan></text>
  </g>
  <text class="st9" transform="translate(508.2 80.5)"><tspan x="0" y="0">Lorem ipsum</tspan></text>
</svg>